<svg width="458" height="352" viewBox="0 0 458 352" fill="none" xmlns="http://www.w3.org/2000/svg">
<g filter="url(#filter0_d_2068_547)">
<path d="M50 49C50 35.7452 60.7452 25 74 25H384C397.255 25 408 35.7452 408 49V253C408 266.255 397.255 277 384 277H74C60.7452 277 50 266.255 50 253V49Z" fill="white"/>
<path d="M195 107C195 88.2223 210.222 73 229 73C247.778 73 263 88.2223 263 107C263 125.778 247.778 141 229 141C210.222 141 195 125.778 195 107Z" fill="#10B981"/>
<path d="M241.702 97.9229C242.434 98.6553 242.434 99.8447 241.702 100.577L226.702 115.577C225.969 116.31 224.78 116.31 224.047 115.577L216.547 108.077C215.815 107.345 215.815 106.155 216.547 105.423C217.28 104.69 218.469 104.69 219.202 105.423L225.377 111.593L239.053 97.9229C239.786 97.1904 240.975 97.1904 241.708 97.9229H241.702Z" fill="white"/>
<path d="M136.637 190V183.136L137.525 185.488L130.133 173.2H134.261L139.925 182.632H137.549L143.237 173.2H147.053L139.661 185.488L140.525 183.136V190H136.637ZM153.13 190.192C151.754 190.192 150.53 189.904 149.458 189.328C148.402 188.752 147.562 187.968 146.938 186.976C146.33 185.968 146.026 184.824 146.026 183.544C146.026 182.248 146.33 181.104 146.938 180.112C147.562 179.104 148.402 178.32 149.458 177.76C150.53 177.184 151.754 176.896 153.13 176.896C154.49 176.896 155.706 177.184 156.778 177.76C157.85 178.32 158.69 179.096 159.298 180.088C159.906 181.08 160.21 182.232 160.21 183.544C160.21 184.824 159.906 185.968 159.298 186.976C158.69 187.968 157.85 188.752 156.778 189.328C155.706 189.904 154.49 190.192 153.13 190.192ZM153.13 187.12C153.754 187.12 154.314 186.976 154.81 186.688C155.306 186.4 155.698 185.992 155.986 185.464C156.274 184.92 156.418 184.28 156.418 183.544C156.418 182.792 156.274 182.152 155.986 181.624C155.698 181.096 155.306 180.688 154.81 180.4C154.314 180.112 153.754 179.968 153.13 179.968C152.506 179.968 151.946 180.112 151.45 180.4C150.954 180.688 150.554 181.096 150.25 181.624C149.962 182.152 149.818 182.792 149.818 183.544C149.818 184.28 149.962 184.92 150.25 185.464C150.554 185.992 150.954 186.4 151.45 186.688C151.946 186.976 152.506 187.12 153.13 187.12ZM168.16 190.192C167.088 190.192 166.128 189.984 165.28 189.568C164.448 189.152 163.8 188.52 163.336 187.672C162.872 186.808 162.64 185.712 162.64 184.384V177.088H166.384V183.832C166.384 184.904 166.608 185.696 167.056 186.208C167.52 186.704 168.168 186.952 169 186.952C169.576 186.952 170.088 186.832 170.536 186.592C170.984 186.336 171.336 185.952 171.592 185.44C171.848 184.912 171.976 184.256 171.976 183.472V177.088H175.72V190H172.168V186.448L172.816 187.48C172.384 188.376 171.744 189.056 170.896 189.52C170.064 189.968 169.152 190.192 168.16 190.192ZM179.189 190V177.088H182.765V180.736L182.261 179.68C182.645 178.768 183.261 178.08 184.109 177.616C184.957 177.136 185.989 176.896 187.205 176.896V180.352C187.045 180.336 186.901 180.328 186.773 180.328C186.645 180.312 186.509 180.304 186.365 180.304C185.341 180.304 184.509 180.6 183.869 181.192C183.245 181.768 182.933 182.672 182.933 183.904V190H179.189ZM194.378 190L201.866 173.2H205.706L213.218 190H209.138L202.994 175.168H204.53L198.362 190H194.378ZM198.122 186.4L199.154 183.448H207.794L208.85 186.4H198.122ZM220.82 190.192C219.428 190.192 218.188 189.912 217.1 189.352C216.012 188.776 215.156 187.984 214.532 186.976C213.924 185.968 213.62 184.824 213.62 183.544C213.62 182.248 213.924 181.104 214.532 180.112C215.156 179.104 216.012 178.32 217.1 177.76C218.188 177.184 219.428 176.896 220.82 176.896C222.18 176.896 223.364 177.184 224.372 177.76C225.38 178.32 226.124 179.128 226.604 180.184L223.7 181.744C223.364 181.136 222.94 180.688 222.428 180.4C221.932 180.112 221.388 179.968 220.796 179.968C220.156 179.968 219.58 180.112 219.068 180.4C218.556 180.688 218.148 181.096 217.844 181.624C217.556 182.152 217.412 182.792 217.412 183.544C217.412 184.296 217.556 184.936 217.844 185.464C218.148 185.992 218.556 186.4 219.068 186.688C219.58 186.976 220.156 187.12 220.796 187.12C221.388 187.12 221.932 186.984 222.428 186.712C222.94 186.424 223.364 185.968 223.7 185.344L226.604 186.928C226.124 187.968 225.38 188.776 224.372 189.352C223.364 189.912 222.18 190.192 220.82 190.192ZM234.835 190.192C233.443 190.192 232.203 189.912 231.115 189.352C230.027 188.776 229.171 187.984 228.547 186.976C227.939 185.968 227.635 184.824 227.635 183.544C227.635 182.248 227.939 181.104 228.547 180.112C229.171 179.104 230.027 178.32 231.115 177.76C232.203 177.184 233.443 176.896 234.835 176.896C236.195 176.896 237.379 177.184 238.387 177.76C239.395 178.32 240.139 179.128 240.619 180.184L237.715 181.744C237.379 181.136 236.955 180.688 236.443 180.4C235.947 180.112 235.403 179.968 234.811 179.968C234.171 179.968 233.595 180.112 233.083 180.4C232.571 180.688 232.163 181.096 231.859 181.624C231.571 182.152 231.427 182.792 231.427 183.544C231.427 184.296 231.571 184.936 231.859 185.464C232.163 185.992 232.571 186.4 233.083 186.688C233.595 186.976 234.171 187.12 234.811 187.12C235.403 187.12 235.947 186.984 236.443 186.712C236.955 186.424 237.379 185.968 237.715 185.344L240.619 186.928C240.139 187.968 239.395 188.776 238.387 189.352C237.379 189.912 236.195 190.192 234.835 190.192ZM248.755 190.192C247.379 190.192 246.155 189.904 245.083 189.328C244.027 188.752 243.187 187.968 242.563 186.976C241.955 185.968 241.651 184.824 241.651 183.544C241.651 182.248 241.955 181.104 242.563 180.112C243.187 179.104 244.027 178.32 245.083 177.76C246.155 177.184 247.379 176.896 248.755 176.896C250.115 176.896 251.331 177.184 252.403 177.76C253.475 178.32 254.315 179.096 254.923 180.088C255.531 181.08 255.835 182.232 255.835 183.544C255.835 184.824 255.531 185.968 254.923 186.976C254.315 187.968 253.475 188.752 252.403 189.328C251.331 189.904 250.115 190.192 248.755 190.192ZM248.755 187.12C249.379 187.12 249.939 186.976 250.435 186.688C250.931 186.4 251.323 185.992 251.611 185.464C251.899 184.92 252.043 184.28 252.043 183.544C252.043 182.792 251.899 182.152 251.611 181.624C251.323 181.096 250.931 180.688 250.435 180.4C249.939 180.112 249.379 179.968 248.755 179.968C248.131 179.968 247.571 180.112 247.075 180.4C246.579 180.688 246.179 181.096 245.875 181.624C245.587 182.152 245.443 182.792 245.443 183.544C245.443 184.28 245.587 184.92 245.875 185.464C246.179 185.992 246.579 186.4 247.075 186.688C247.571 186.976 248.131 187.12 248.755 187.12ZM263.785 190.192C262.713 190.192 261.753 189.984 260.905 189.568C260.073 189.152 259.425 188.52 258.961 187.672C258.497 186.808 258.265 185.712 258.265 184.384V177.088H262.009V183.832C262.009 184.904 262.233 185.696 262.681 186.208C263.145 186.704 263.793 186.952 264.625 186.952C265.201 186.952 265.713 186.832 266.161 186.592C266.609 186.336 266.961 185.952 267.217 185.44C267.473 184.912 267.601 184.256 267.601 183.472V177.088H271.345V190H267.793V186.448L268.441 187.48C268.009 188.376 267.369 189.056 266.521 189.52C265.689 189.968 264.777 190.192 263.785 190.192ZM282.662 176.896C283.686 176.896 284.598 177.104 285.398 177.52C286.214 177.92 286.854 178.544 287.318 179.392C287.782 180.224 288.014 181.296 288.014 182.608V190H284.27V183.184C284.27 182.144 284.038 181.376 283.574 180.88C283.126 180.384 282.486 180.136 281.654 180.136C281.062 180.136 280.526 180.264 280.046 180.52C279.582 180.76 279.214 181.136 278.942 181.648C278.686 182.16 278.558 182.816 278.558 183.616V190H274.814V177.088H278.39V180.664L277.718 179.584C278.182 178.72 278.846 178.056 279.71 177.592C280.574 177.128 281.558 176.896 282.662 176.896ZM296.688 190.192C295.168 190.192 293.984 189.808 293.136 189.04C292.288 188.256 291.864 187.096 291.864 185.56V174.232H295.608V185.512C295.608 186.056 295.752 186.48 296.04 186.784C296.328 187.072 296.72 187.216 297.216 187.216C297.808 187.216 298.312 187.056 298.728 186.736L299.736 189.376C299.352 189.648 298.888 189.856 298.344 190C297.816 190.128 297.264 190.192 296.688 190.192ZM289.872 180.256V177.376H298.824V180.256H289.872ZM308.898 190V173.2H312.786V190H308.898ZM320.853 190.192C319.749 190.192 318.685 190.064 317.661 189.808C316.653 189.536 315.853 189.2 315.261 188.8L316.509 186.112C317.101 186.48 317.797 186.784 318.597 187.024C319.413 187.248 320.213 187.36 320.997 187.36C321.861 187.36 322.469 187.256 322.821 187.048C323.189 186.84 323.373 186.552 323.373 186.184C323.373 185.88 323.229 185.656 322.941 185.512C322.669 185.352 322.301 185.232 321.837 185.152C321.373 185.072 320.861 184.992 320.301 184.912C319.757 184.832 319.205 184.728 318.645 184.6C318.085 184.456 317.573 184.248 317.109 183.976C316.645 183.704 316.269 183.336 315.981 182.872C315.709 182.408 315.573 181.808 315.573 181.072C315.573 180.256 315.805 179.536 316.269 178.912C316.749 178.288 317.437 177.8 318.333 177.448C319.229 177.08 320.301 176.896 321.549 176.896C322.429 176.896 323.325 176.992 324.237 177.184C325.149 177.376 325.909 177.656 326.517 178.024L325.269 180.688C324.645 180.32 324.013 180.072 323.373 179.944C322.749 179.8 322.141 179.728 321.549 179.728C320.717 179.728 320.109 179.84 319.725 180.064C319.341 180.288 319.149 180.576 319.149 180.928C319.149 181.248 319.285 181.488 319.557 181.648C319.845 181.808 320.221 181.936 320.685 182.032C321.149 182.128 321.653 182.216 322.197 182.296C322.757 182.36 323.317 182.464 323.877 182.608C324.437 182.752 324.941 182.96 325.389 183.232C325.853 183.488 326.229 183.848 326.517 184.312C326.805 184.76 326.949 185.352 326.949 186.088C326.949 186.888 326.709 187.6 326.229 188.224C325.749 188.832 325.053 189.312 324.141 189.664C323.245 190.016 322.149 190.192 320.853 190.192ZM188.371 222V205.2H195.643C197.147 205.2 198.443 205.448 199.531 205.944C200.619 206.424 201.459 207.12 202.051 208.032C202.643 208.944 202.939 210.032 202.939 211.296C202.939 212.544 202.643 213.624 202.051 214.536C201.459 215.432 200.619 216.12 199.531 216.6C198.443 217.08 197.147 217.32 195.643 217.32H190.531L192.259 215.616V222H188.371ZM199.051 222L194.851 215.904H199.003L203.251 222H199.051ZM192.259 216.048L190.531 214.224H195.427C196.627 214.224 197.523 213.968 198.115 213.456C198.707 212.928 199.003 212.208 199.003 211.296C199.003 210.368 198.707 209.648 198.115 209.136C197.523 208.624 196.627 208.368 195.427 208.368H190.531L192.259 206.52V216.048ZM212.163 222.192C210.691 222.192 209.395 221.904 208.275 221.328C207.171 220.752 206.315 219.968 205.707 218.976C205.099 217.968 204.795 216.824 204.795 215.544C204.795 214.248 205.091 213.104 205.683 212.112C206.291 211.104 207.115 210.32 208.155 209.76C209.195 209.184 210.371 208.896 211.683 208.896C212.947 208.896 214.083 209.168 215.091 209.712C216.115 210.24 216.923 211.008 217.515 212.016C218.107 213.008 218.403 214.2 218.403 215.592C218.403 215.736 218.395 215.904 218.379 216.096C218.363 216.272 218.347 216.44 218.331 216.6H207.843V214.416H216.363L214.923 215.064C214.923 214.392 214.787 213.808 214.515 213.312C214.243 212.816 213.867 212.432 213.387 212.16C212.907 211.872 212.347 211.728 211.707 211.728C211.067 211.728 210.499 211.872 210.003 212.16C209.523 212.432 209.147 212.824 208.875 213.336C208.603 213.832 208.467 214.424 208.467 215.112V215.688C208.467 216.392 208.619 217.016 208.923 217.56C209.243 218.088 209.683 218.496 210.243 218.784C210.819 219.056 211.491 219.192 212.259 219.192C212.947 219.192 213.547 219.088 214.059 218.88C214.587 218.672 215.067 218.36 215.499 217.944L217.491 220.104C216.899 220.776 216.155 221.296 215.259 221.664C214.363 222.016 213.331 222.192 212.163 222.192ZM228.464 222V219.48L228.224 218.928V214.416C228.224 213.616 227.976 212.992 227.48 212.544C227 212.096 226.256 211.872 225.248 211.872C224.56 211.872 223.88 211.984 223.208 212.208C222.552 212.416 221.992 212.704 221.528 213.072L220.184 210.456C220.888 209.96 221.736 209.576 222.728 209.304C223.72 209.032 224.728 208.896 225.752 208.896C227.72 208.896 229.248 209.36 230.336 210.288C231.424 211.216 231.968 212.664 231.968 214.632V222H228.464ZM224.528 222.192C223.52 222.192 222.656 222.024 221.936 221.688C221.216 221.336 220.664 220.864 220.28 220.272C219.896 219.68 219.704 219.016 219.704 218.28C219.704 217.512 219.888 216.84 220.256 216.264C220.64 215.688 221.24 215.24 222.056 214.92C222.872 214.584 223.936 214.416 225.248 214.416H228.68V216.6H225.656C224.776 216.6 224.168 216.744 223.832 217.032C223.512 217.32 223.352 217.68 223.352 218.112C223.352 218.592 223.536 218.976 223.904 219.264C224.288 219.536 224.808 219.672 225.464 219.672C226.088 219.672 226.648 219.528 227.144 219.24C227.64 218.936 228 218.496 228.224 217.92L228.8 219.648C228.528 220.48 228.032 221.112 227.312 221.544C226.592 221.976 225.664 222.192 224.528 222.192ZM240.995 222.192C239.779 222.192 238.683 221.92 237.707 221.376C236.731 220.816 235.955 220.04 235.379 219.048C234.819 218.056 234.539 216.888 234.539 215.544C234.539 214.184 234.819 213.008 235.379 212.016C235.955 211.024 236.731 210.256 237.707 209.712C238.683 209.168 239.779 208.896 240.995 208.896C242.083 208.896 243.035 209.136 243.851 209.616C244.667 210.096 245.299 210.824 245.747 211.8C246.195 212.776 246.419 214.024 246.419 215.544C246.419 217.048 246.203 218.296 245.771 219.288C245.339 220.264 244.715 220.992 243.899 221.472C243.099 221.952 242.131 222.192 240.995 222.192ZM241.643 219.12C242.251 219.12 242.803 218.976 243.299 218.688C243.795 218.4 244.187 217.992 244.475 217.464C244.779 216.92 244.931 216.28 244.931 215.544C244.931 214.792 244.779 214.152 244.475 213.624C244.187 213.096 243.795 212.688 243.299 212.4C242.803 212.112 242.251 211.968 241.643 211.968C241.019 211.968 240.459 212.112 239.963 212.4C239.467 212.688 239.067 213.096 238.763 213.624C238.475 214.152 238.331 214.792 238.331 215.544C238.331 216.28 238.475 216.92 238.763 217.464C239.067 217.992 239.467 218.4 239.963 218.688C240.459 218.976 241.019 219.12 241.643 219.12ZM245.027 222V219.36L245.099 215.52L244.859 211.704V204.192H248.603V222H245.027ZM253.7 226.848C253.028 226.848 252.364 226.744 251.708 226.536C251.052 226.328 250.516 226.04 250.1 225.672L251.468 223.008C251.756 223.264 252.084 223.464 252.452 223.608C252.836 223.752 253.212 223.824 253.58 223.824C254.108 223.824 254.524 223.696 254.828 223.44C255.148 223.2 255.436 222.792 255.692 222.216L256.364 220.632L256.652 220.224L261.284 209.088H264.884L259.052 222.792C258.636 223.832 258.156 224.648 257.612 225.24C257.084 225.832 256.492 226.248 255.836 226.488C255.196 226.728 254.484 226.848 253.7 226.848ZM255.908 222.504L250.148 209.088H254.012L258.476 219.888L255.908 222.504ZM266.676 216.168L265.932 205.2H270.396L269.652 216.168H266.676ZM268.164 222.192C267.492 222.192 266.94 221.976 266.508 221.544C266.076 221.112 265.86 220.6 265.86 220.008C265.86 219.4 266.076 218.896 266.508 218.496C266.94 218.08 267.492 217.872 268.164 217.872C268.852 217.872 269.404 218.08 269.82 218.496C270.252 218.896 270.468 219.4 270.468 220.008C270.468 220.6 270.252 221.112 269.82 221.544C269.404 221.976 268.852 222.192 268.164 222.192Z" fill="#111827"/>
</g>
<defs>
<filter id="filter0_d_2068_547" x="0" y="0" width="458" height="352" filterUnits="userSpaceOnUse" color-interpolation-filters="sRGB">
<feFlood flood-opacity="0" result="BackgroundImageFix"/>
<feColorMatrix in="SourceAlpha" type="matrix" values="0 0 0 0 0 0 0 0 0 0 0 0 0 0 0 0 0 0 127 0" result="hardAlpha"/>
<feOffset dy="25"/>
<feGaussianBlur stdDeviation="25"/>
<feColorMatrix type="matrix" values="0 0 0 0 0 0 0 0 0 0 0 0 0 0 0 0 0 0 0.25 0"/>
<feBlend mode="normal" in2="BackgroundImageFix" result="effect1_dropShadow_2068_547"/>
<feBlend mode="normal" in="SourceGraphic" in2="effect1_dropShadow_2068_547" result="shape"/>
</filter>
</defs>
</svg>
