<svg width="15" height="20" viewBox="0 0 15 20" fill="none" xmlns="http://www.w3.org/2000/svg">
<path d="M12.4414 10.4977C12.4336 9.06409 13.082 7.98206 14.3945 7.18518C13.6602 6.1344 12.5508 5.55627 11.0859 5.44299C9.69922 5.33362 8.18359 6.25159 7.62891 6.25159C7.04297 6.25159 5.69922 5.48206 4.64453 5.48206C2.46484 5.51721 0.148438 7.22034 0.148438 10.6852C0.148438 11.7086 0.335937 12.7659 0.710938 13.8571C1.21094 15.2907 3.01562 18.8063 4.89844 18.7477C5.88281 18.7242 6.57812 18.0485 7.85938 18.0485C9.10156 18.0485 9.74609 18.7477 10.8438 18.7477C12.7422 18.7203 14.375 15.525 14.8516 14.0875C12.3047 12.8883 12.4414 10.5719 12.4414 10.4977ZM10.2305 4.08362C11.2969 2.81799 11.1992 1.66565 11.168 1.25159C10.2266 1.30627 9.13672 1.89221 8.51562 2.61487C7.83203 3.38831 7.42969 4.34534 7.51562 5.42346C8.53516 5.50159 9.46484 4.97815 10.2305 4.08362Z" fill="#4B5563"/>
</svg>
