<svg width="184" height="175" viewBox="0 0 184 175" fill="none" xmlns="http://www.w3.org/2000/svg">
<path d="M84.3166 29.5986C84.3166 29.5986 59.6518 30.6845 46.5855 56.4745C33.5193 82.2645 20.0285 74.2146 12.0611 97.479C4.09372 120.743 20.16 147.198 30.9295 150.065C41.699 152.931 164.712 150.065 164.712 150.065C164.712 150.065 180.965 138.952 182.24 110.089C183.514 81.2262 159.294 71.5863 149.256 67.4829C139.217 63.3791 123.747 28.9613 84.3166 29.5986Z" fill="#F3F5F4"/>
<path d="M119.658 100.131C148.071 81.0144 153.58 71.1985 167.604 69.3731C201.761 64.9277 176.735 153.222 98.5161 172.089C61.353 181.054 15.3186 156.604 8.73504 137.607C2.37031 119.241 19.5063 112.352 44.8093 122.202C70.1131 132.053 105.182 109.872 119.658 100.131Z" stroke="#BBBFBD" stroke-miterlimit="10"/>
<path d="M153.002 81.2461C154.615 79.4833 154.493 76.7469 152.73 75.1341C150.968 73.5214 148.231 73.643 146.618 75.4058C145.006 77.1686 145.127 79.9051 146.89 81.5178C148.653 83.1306 151.389 83.0089 153.002 81.2461Z" fill="#D9D9D9"/>
<path d="M151.127 166.393C152.817 164.704 152.817 161.964 151.127 160.275C149.438 158.586 146.699 158.586 145.009 160.275C143.32 161.964 143.32 164.704 145.009 166.393C146.699 168.082 149.438 168.082 151.127 166.393Z" stroke="#BBBFBD" stroke-miterlimit="10"/>
<path d="M91.7246 69.2539C94.1138 69.2539 96.0507 67.317 96.0507 64.9277C96.0507 62.5384 94.1138 60.6016 91.7246 60.6016C89.3353 60.6016 87.3984 62.5384 87.3984 64.9277C87.3984 67.317 89.3353 69.2539 91.7246 69.2539Z" stroke="#BBBFBD" stroke-miterlimit="10"/>
<path d="M79.4829 82.21L75.0947 88.3183H83.4343L79.4829 82.21Z" stroke="#BBBFBD" stroke-miterlimit="10" stroke-linecap="round" stroke-linejoin="round"/>
<path d="M58.861 159.806L56.1025 165.117H64.4416L58.861 159.806Z" fill="#D9D9D9"/>
<path d="M17.9603 94.5005C19.0077 90.0646 16.2609 85.6195 11.825 84.5721C7.3891 83.5246 2.94399 86.2715 1.89655 90.7074C0.849115 95.1433 3.596 99.5884 8.03188 100.636C12.4678 101.683 16.9129 98.9364 17.9603 94.5005Z" stroke="#BBBFBD" stroke-miterlimit="10" stroke-linecap="round" stroke-linejoin="round"/>
<path d="M13.435 111.998C13.3875 110.906 13.4468 109.968 13.6131 109.184C13.7793 108.377 14.088 107.665 14.5392 107.047C14.9904 106.406 15.5959 105.812 16.3558 105.266L17.9232 104.162C18.968 103.402 19.6923 102.713 20.096 102.096C20.5235 101.478 20.7372 100.766 20.7372 99.9587C20.7372 99.2225 20.4997 98.5694 20.0248 97.9995C19.5736 97.4296 18.9561 96.9784 18.1725 96.6459C17.4126 96.2897 16.5458 96.1116 15.5722 96.1116C14.4086 96.1116 13.3043 96.3847 12.2595 96.9309C11.2384 97.4771 10.3241 98.2726 9.51669 99.3175L7.45069 97.9639C8.13936 97.0615 8.91114 96.3016 9.76603 95.6842C10.6447 95.043 11.5827 94.5681 12.5801 94.2594C13.5774 93.9269 14.6223 93.7607 15.7147 93.7607C17.1632 93.7607 18.4575 94.0338 19.5973 94.5799C20.7609 95.1024 21.6752 95.8267 22.3401 96.7528C23.005 97.6789 23.3375 98.7357 23.3375 99.923C23.3375 100.73 23.2069 101.467 22.9457 102.132C22.7082 102.773 22.2807 103.402 21.6633 104.019C21.0696 104.637 20.2385 105.314 19.1699 106.05L17.9588 106.905C17.0801 107.498 16.4627 108.199 16.1065 109.006C15.7503 109.814 15.6197 110.811 15.7147 111.998H13.435ZM14.5748 119.301C14.0761 119.301 13.6487 119.123 13.2925 118.766C12.9363 118.41 12.7582 117.983 12.7582 117.484C12.7582 116.985 12.9363 116.558 13.2925 116.202C13.6487 115.845 14.0761 115.667 14.5748 115.667C15.0735 115.667 15.5009 115.845 15.8572 116.202C16.2134 116.558 16.3915 116.985 16.3915 117.484C16.3915 117.983 16.2134 118.41 15.8572 118.766C15.5009 119.123 15.0735 119.301 14.5748 119.301Z" fill="url(#paint0_linear_2070_1087)"/>
<path d="M100.754 38.1004C103.977 34.8774 103.977 29.6519 100.754 26.4289C97.5313 23.2059 92.3058 23.2059 89.0828 26.4289C85.8598 29.6519 85.8598 34.8774 89.0828 38.1004C92.3058 41.3234 97.5313 41.3234 100.754 38.1004Z" fill="url(#paint1_linear_2070_1087)"/>
<path d="M98.4223 51.6654C98.3748 50.573 98.4341 49.635 98.6004 48.8514C98.7666 48.044 99.0753 47.3316 99.5265 46.7141C99.9777 46.073 100.583 45.4793 101.343 44.9331L102.91 43.8289C103.955 43.069 104.68 42.3803 105.083 41.7629C105.511 41.1455 105.724 40.433 105.724 39.6256C105.724 38.8895 105.487 38.2364 105.012 37.6665C104.561 37.0966 103.943 36.6454 103.16 36.3129C102.4 35.9567 101.533 35.7786 100.559 35.7786C99.3959 35.7786 98.2917 36.0517 97.2468 36.5979C96.2257 37.1441 95.3114 37.9396 94.504 38.9845L92.438 37.6309C93.1267 36.7285 93.8984 35.9686 94.7533 35.3512C95.632 34.71 96.57 34.2351 97.5674 33.9263C98.5647 33.5939 99.6096 33.4277 100.702 33.4277C102.151 33.4277 103.445 33.7007 104.585 34.2469C105.748 34.7694 106.662 35.4937 107.327 36.4198C107.992 37.3459 108.325 38.4027 108.325 39.59C108.325 40.3974 108.194 41.1336 107.933 41.7985C107.695 42.4397 107.268 43.069 106.651 43.6864C106.057 44.3038 105.226 44.9806 104.157 45.7168L102.946 46.5717C102.067 47.1653 101.45 47.8659 101.094 48.6733C100.738 49.4807 100.607 50.4781 100.702 51.6654H98.4223ZM99.5621 58.9676C99.0634 58.9676 98.636 58.7895 98.2798 58.4333C97.9236 58.0771 97.7455 57.6497 97.7455 57.151C97.7455 56.6523 97.9236 56.2248 98.2798 55.8686C98.636 55.5124 99.0634 55.3343 99.5621 55.3343C100.061 55.3343 100.488 55.5124 100.844 55.8686C101.201 56.2248 101.379 56.6523 101.379 57.151C101.379 57.6497 101.201 58.0771 100.844 58.4333C100.488 58.7895 100.061 58.9676 99.5621 58.9676Z" fill="white"/>
<path d="M35.4406 96.9982C35.9658 94.7633 34.5799 92.5258 32.3451 92.0006C30.1103 91.4753 27.8728 92.8612 27.3475 95.0961C26.8223 97.3309 28.2082 99.5684 30.443 100.094C32.6778 100.619 34.9153 99.233 35.4406 96.9982Z" fill="#D9D9D9"/>
<path d="M178.638 21.7627H141.442C139.319 21.7627 137.598 23.4837 137.598 25.607V47.9939C137.598 50.1172 139.319 51.8382 141.442 51.8382H149.013L147.512 55.7175C147.077 56.841 148.378 57.8361 149.349 57.1227L156.539 51.8378H178.639C180.762 51.8378 182.483 50.1168 182.483 47.9935V25.6066C182.483 23.4837 180.761 21.7627 178.638 21.7627Z" fill="url(#paint2_linear_2070_1087)"/>
<path d="M141.985 28.0381H177.566" stroke="white" stroke-miterlimit="10" stroke-linecap="round" stroke-linejoin="round"/>
<path d="M141.985 31.2695H177.566" stroke="white" stroke-miterlimit="10" stroke-linecap="round" stroke-linejoin="round"/>
<path d="M141.985 34.502H177.566" stroke="white" stroke-miterlimit="10" stroke-linecap="round" stroke-linejoin="round"/>
<path d="M141.985 37.7344H177.566" stroke="white" stroke-miterlimit="10" stroke-linecap="round" stroke-linejoin="round"/>
<path d="M141.985 40.9658H177.566" stroke="white" stroke-miterlimit="10" stroke-linecap="round" stroke-linejoin="round"/>
<path d="M141.985 44.1973H177.566" stroke="white" stroke-miterlimit="10" stroke-linecap="round" stroke-linejoin="round"/>
<path d="M62.3351 92.9291C62.3351 92.9291 61.9564 89.7496 61.4645 88.2352C60.9722 86.7212 58.8904 83.8444 58.8904 83.8444C58.8904 83.8444 58.0579 85.6235 59.2691 87.0995C59.2691 87.0995 59.1936 89.4464 59.3071 90.279C59.3071 90.279 55.3719 86.9178 54.6149 86.5771C54.1349 86.194 53.5491 85.727 52.8341 85.157C50.2224 83.0752 48.4813 83.7186 48.708 83.8702C48.8644 83.9741 51.8513 86.3897 53.7003 87.887L53.4583 88.2334C52.8965 87.7853 52.0019 87.0711 50.6762 86.0144C48.0646 83.9326 46.323 84.576 46.5501 84.7276C46.7402 84.8543 51.1122 88.3955 52.5379 89.5508L52.1173 90.1536C51.5643 89.7125 50.6444 88.9782 49.2374 87.8569C46.6257 85.7751 44.8846 86.4185 45.1113 86.5701C45.3057 86.6998 49.8865 90.4109 51.1965 91.4724L50.7505 92.1114C50.2643 91.6698 48.9137 90.4703 47.6098 89.5604C45.9823 88.4247 44.8086 88.9546 44.8086 88.9546C44.8086 88.9546 44.8086 88.9546 45.5276 89.598C46.2466 90.2414 49.9939 93.1943 49.9939 93.1943C49.9939 93.1943 55.7153 98.3045 57.151 98.7963L58.551 100.132L63.7023 94.5562L62.3351 92.9291Z" fill="#FF996A"/>
<path d="M103.522 128.225C100.451 132.654 96.1543 135.39 90.4422 134.228C75.1456 131.118 57.084 101.426 57.084 101.426L57.993 100.442L64.7342 93.1489L88.1961 114.469L95.5227 103.863L102.679 93.5058L106.216 88.3877C106.216 88.3877 108.287 91.6629 109.591 102.074C110.405 108.598 108.686 120.794 103.522 128.225Z" fill="#D3AA7D"/>
<path d="M103.522 128.226C100.451 132.655 96.1543 135.391 90.4422 134.228C75.1456 131.119 57.084 101.426 57.084 101.426L57.993 100.443L58.5534 100.131C58.5534 100.131 80.0767 129.741 89.147 125.337C94.7552 122.613 95.6559 111.758 95.5231 103.863L102.68 93.5059L103.522 128.226Z" fill="#C1966B"/>
<path d="M160.978 125.336L159.584 149.879H154.179L156.303 125.336H160.978Z" fill="#FFD700"/>
<path d="M127.895 125.336L126.501 149.879H121.097L123.221 125.336H127.895Z" fill="#FFD700"/>
<path d="M161.53 129.585H118.71C114.453 129.585 111.003 126.134 111.003 121.878V97.9253C111.003 93.6691 114.453 90.2188 118.71 90.2188H161.53C165.787 90.2188 169.237 93.6691 169.237 97.9253V121.878C169.237 126.134 165.787 129.585 161.53 129.585Z" fill="#FFD700"/>
<path d="M157.919 129.585H115.098C110.842 129.585 107.392 126.134 107.392 121.878V97.9253C107.392 93.6691 110.842 90.2188 115.098 90.2188H157.919C162.175 90.2188 165.626 93.6691 165.626 97.9253V121.878C165.625 126.134 162.175 129.585 157.919 129.585Z" fill="url(#paint3_linear_2070_1087)"/>
<path d="M125.643 79.1682C125.643 79.1682 134.088 77.8119 145.45 89.5659L148.071 149.879H100.586C100.586 149.879 95.4013 109.19 101.445 94.7194C107.489 80.2488 118.344 78.5213 125.643 79.1682Z" fill="#FFD294"/>
<path d="M109.076 46.4581L111.161 43.6035L128.936 49.5546L128.781 56.2308H129.955C132.339 56.2308 134.272 58.1632 134.272 60.5473C134.272 62.9314 132.339 64.8638 129.955 64.8638H128.582L128.372 73.9254V81.8884L115.504 83.658L115.189 78.3319L115.022 75.5338L113.155 74.6422C107.81 72.0917 104.405 66.6962 104.405 60.7736C104.405 55.6253 106.042 50.613 109.076 46.4581Z" fill="#FF996A"/>
<path d="M115.021 75.5331L115.188 78.3313C115.661 78.275 116.157 78.2016 116.671 78.1081C124.619 76.6592 127.73 69.4755 127.407 65.7744C127.407 65.7744 124.728 74.6757 115.021 75.5331Z" fill="#D37A57"/>
<path d="M130.088 59.3106C129.755 59.5627 129.449 59.896 129.339 60.3127C129.339 60.3127 130.002 60.5337 130.063 61.278C130.123 62.0219 129.339 62.3438 129.339 62.3438C129.339 62.3438 129.942 63.3494 130.948 62.8064C131.953 62.2635 131.786 60.3682 130.787 59.9711C130.787 59.9711 132.376 59.7903 132.958 60.3734C132.958 60.3734 133.091 59.7885 132.428 59.2713C131.743 58.7371 130.779 58.7869 130.088 59.3106Z" fill="#D37A57"/>
<path d="M109.077 46.4578C109.077 46.4578 111.483 50.6004 114.593 51.941C117.703 53.2816 121.028 51.3303 124.138 53.1103C127.248 54.8903 125.264 58.2262 125.961 59.8293C126.658 61.432 127.431 61.6464 127.431 61.6464C127.431 61.6464 127.849 57.0888 128.782 56.2309C128.782 56.2309 131.574 56.2073 132.444 57.0211C132.444 57.0211 134.004 53.8717 134.272 51.405C134.54 48.9384 131.805 48.1342 131.805 48.1342C131.805 48.1342 131.162 42.236 123.923 40.0376C116.684 37.8391 111.162 41.3244 108.266 40.0376C105.371 38.7507 102.743 40.6814 102.583 43.6037C102.422 46.5255 104.406 47.5983 104.406 47.5983C104.406 47.5983 103.065 48.7283 103.602 50.469C104.138 52.2096 105.821 52.6115 105.821 52.6115C105.821 52.6115 107.801 48.1976 109.077 46.4578Z" fill="#3F2D1F"/>
<path d="M110.518 67.657L117.888 67.2949C117.888 67.2949 116.182 69.9494 113.753 69.9241C111.517 69.9005 110.518 67.657 110.518 67.657Z" fill="white"/>
<path d="M118.989 55.6527C118.896 55.6527 118.803 55.6217 118.726 55.5579C117.17 54.2763 115.64 55.3648 115.625 55.3766C115.44 55.5125 115.18 55.4714 115.045 55.2862C114.91 55.101 114.95 54.8415 115.135 54.7061C115.843 54.1894 117.615 53.5674 119.253 54.9171C119.43 55.063 119.456 55.3246 119.31 55.5016C119.228 55.6011 119.109 55.6527 118.989 55.6527Z" fill="#3F2D1F"/>
<path d="M109.824 55.6527C109.731 55.6527 109.638 55.6217 109.561 55.5579C108.005 54.2763 106.475 55.3648 106.46 55.3766C106.275 55.5125 106.015 55.4714 105.88 55.2862C105.745 55.101 105.785 54.8415 105.97 54.7061C106.678 54.1894 108.45 53.5674 110.088 54.9171C110.266 55.063 110.291 55.3246 110.145 55.5016C110.063 55.6011 109.944 55.6527 109.824 55.6527Z" fill="#3F2D1F"/>
<path d="M130.733 79.7977L128.4 76.7637L119.136 80.0284L117.636 82.6313L116.621 80.2931L115.214 78.7568L113.754 81.5725C113.754 81.5725 113.798 84.396 117.372 85.146C120.945 85.896 128.753 82.9843 130.733 79.7977Z" fill="#9C897A"/>
<path d="M132.442 57.0213C132.442 57.0213 131.002 56.4713 129.635 57.7284C128.268 58.9856 128.731 60.2209 128.731 60.2209C128.731 60.2209 129.363 58.7314 130.716 58.8939C132.07 59.0563 133.054 62.7133 131.246 63.3973C129.437 64.0809 127.128 63.0392 127.209 60.2209C127.29 57.403 128.323 55.8091 130.027 55.5667C131.73 55.3238 132.404 56.7552 132.442 57.0213Z" fill="url(#paint4_linear_2070_1087)"/>
<path d="M119.653 71.1853C119.478 71.1853 119.322 71.0617 119.288 70.8839C119.249 70.6821 119.381 70.4873 119.583 70.4484C126.59 69.1009 128.964 62.5024 128.987 62.436C129.054 62.2425 129.265 62.1399 129.46 62.2072C129.654 62.2744 129.756 62.4858 129.689 62.6798C129.664 62.7505 127.161 69.7482 119.723 71.1783C119.7 71.1831 119.676 71.1853 119.653 71.1853Z" fill="url(#paint5_linear_2070_1087)"/>
<path d="M118.09 70.9412C118.09 71.8069 118.792 72.5089 119.658 72.5089C120.524 72.5089 121.226 71.8069 121.226 70.9412C121.226 70.0754 120.524 69.373 119.658 69.373C118.792 69.373 118.09 70.075 118.09 70.9412Z" fill="#FFD700"/>
<path d="M130.54 59.5696C130.54 59.5696 130.342 61.3015 130.722 62.2284C131.103 63.1549 131.698 62.6753 131.814 61.5501C131.929 60.4249 130.805 58.8467 130.54 59.5696Z" fill="#FFD700"/>
<path d="M115.631 58.9876C115.631 58.9876 115.634 60.6042 117.75 60.8724C119.866 61.1406 120.251 58.9876 120.251 58.9876C120.251 58.9876 119.05 57.861 117.496 57.8278C115.943 57.7942 115.631 58.9876 115.631 58.9876Z" fill="white"/>
<path d="M105.963 58.9876C105.963 58.9876 105.966 60.6042 108.036 60.8724C110.107 61.1406 110.384 58.9893 110.384 58.9893C110.384 58.9893 109.308 57.861 107.788 57.8278C106.268 57.7942 105.963 58.9876 105.963 58.9876Z" fill="white"/>
<path d="M110.384 58.9898C110.384 58.9898 109.275 57.7716 108.088 57.5527C106.901 57.3339 106.087 57.9118 105.963 58.9898C105.963 58.9898 106.198 58.0996 107.385 57.9904C108.572 57.8808 110.384 58.9898 110.384 58.9898Z" fill="#3F2D1F"/>
<path d="M120.252 58.9881C120.252 58.9881 119.094 57.7148 117.853 57.4863C116.612 57.2579 115.761 57.8616 115.632 58.9881C115.632 58.9881 115.878 58.0577 117.118 57.9432C118.359 57.8292 120.252 58.9881 120.252 58.9881Z" fill="#3F2D1F"/>
<path d="M112.417 59.0342L111.441 64.9254C111.441 64.9254 110.665 64.9853 109.589 64.5471C109.589 64.5471 112.139 59.6959 112.417 59.0342Z" fill="#D37A57"/>
<path d="M83.3775 149.879C83.3775 149.879 83.2189 145.175 88.5165 143.701C93.8146 142.227 100.268 146.537 101.304 149.879H83.3775Z" fill="#FFD700"/>
<path d="M117.662 61.0817C118.396 61.0817 118.99 60.3298 118.99 59.4022C118.99 58.4746 118.396 57.7227 117.662 57.7227C116.929 57.7227 116.335 58.4746 116.335 59.4022C116.335 60.3298 116.929 61.0817 117.662 61.0817Z" fill="#3F2D1F"/>
<path d="M109.682 59.4543C109.682 60.3528 109.103 61.0814 108.387 61.0814C107.672 61.0814 107.093 60.3528 107.093 59.4543C107.093 58.5557 107.672 57.8271 108.387 57.8271C109.103 57.8271 109.682 58.5553 109.682 59.4543Z" fill="#3F2D1F"/>
<path d="M123.532 63.6021C123.532 64.3346 122.665 64.9282 121.595 64.9282C120.525 64.9282 119.658 64.3346 119.658 63.6021C119.658 62.87 120.525 62.2764 121.595 62.2764C122.665 62.2759 123.532 62.8696 123.532 63.6021Z" fill="#D37A57"/>
<path d="M107.716 62.9668C107.716 63.6989 106.849 64.2925 105.78 64.2925C104.71 64.2925 103.843 63.6989 103.843 62.9668C103.843 62.2343 104.71 61.6406 105.78 61.6406C106.849 61.6406 107.716 62.2343 107.716 62.9668Z" fill="#D37A57"/>
<path d="M158.499 134.904C157.158 138.939 154.705 141.99 151.799 144.148C149.819 145.614 147.632 146.664 145.448 147.324C136.332 150.089 102.571 149.877 102.571 149.877L103.842 139.678L141.646 131.181C141.646 131.181 136.755 115.668 136.971 103.136C137.166 91.4712 140.645 86.6641 144.563 88.9351C144.858 89.1094 145.153 89.3169 145.447 89.5658C145.447 89.5658 151.417 98.4614 157.577 116.73C160.097 124.203 160.051 130.213 158.499 134.904Z" fill="#E5BC89"/>
<path d="M100.002 141.032L91.9817 139.571C91.9817 139.571 90.5079 139.318 89.0337 139.956C87.5599 140.593 85.8865 143.701 85.8865 143.701C85.8865 143.701 87.241 143.721 88.157 142.894C89.0734 142.068 89.1927 141.351 89.1927 141.351L92.1359 141.58L92.1883 142.263C91.2055 142.478 88.4073 143.116 87.0418 143.701C85.3689 144.418 84.4922 146.609 84.4922 146.609C84.4922 146.609 86.6832 146.291 87.7984 144.936L92.3543 144.419L92.3871 144.845C91.4479 144.909 89.771 145.119 88.1972 145.813C85.8467 146.848 85.1299 148.243 85.1299 148.243C85.1299 148.243 87.4804 148.243 89.1333 146.968L90.2463 146.876C89.1464 147.581 88.1972 149.279 88.1972 149.279C88.1972 149.279 88.6751 149.399 89.7509 148.92C90.8263 148.442 91.1055 147.897 91.1055 147.897L94.24 148.132C95.8675 148.364 98.3298 148.593 99.7368 148.123L102.734 148.585L103.675 141.034H100.002V141.032Z" fill="#FF996A"/>
<path d="M166.769 154.815H15.9592C14.5963 154.815 13.4912 153.71 13.4912 152.347C13.4912 150.984 14.5963 149.879 15.9592 149.879H166.769C168.132 149.879 169.237 150.984 169.237 152.347C169.237 153.71 168.132 154.815 166.769 154.815Z" fill="#FFD700"/>
<path d="M108.958 154.815H14.972C14.1543 154.815 13.4912 153.71 13.4912 152.347C13.4912 150.984 14.1543 149.879 14.972 149.879H61.9651H108.958C109.776 149.879 110.439 150.984 110.439 152.347C110.439 153.71 109.776 154.815 108.958 154.815Z" fill="url(#paint6_linear_2070_1087)"/>
<path d="M80.5371 140.367H28.6006C26.849 140.367 25.3328 139.149 24.9559 137.438L18.2426 106.949C17.9132 105.454 19.052 104.037 20.583 104.037H73.1052C74.6576 104.037 76.0013 105.117 76.335 106.633L83.0693 137.217C83.4253 138.835 82.1935 140.367 80.5371 140.367Z" fill="url(#paint7_linear_2070_1087)"/>
<path d="M37.117 135.203C36.6832 137.388 34.1336 138.723 31.4219 138.184C28.7102 137.646 26.8638 135.439 27.2975 133.254C27.7313 131.069 30.2809 129.734 32.9926 130.273C35.7043 130.811 37.5507 133.018 37.117 135.203Z" fill="url(#paint8_linear_2070_1087)"/>
<path d="M83.0687 137.217L76.3344 106.633C76.0007 105.117 74.6571 104.037 73.1047 104.037H70.0771C71.6296 104.037 72.9732 105.117 73.3069 106.633L80.0412 137.217C80.3976 138.835 79.1658 140.368 77.509 140.368H80.5365C82.1933 140.368 83.4251 138.835 83.0687 137.217Z" fill="#FFD700"/>
<path d="M74.0812 148.654C74.0812 149.331 73.5347 149.877 72.8581 149.877H29.7438C29.0524 149.877 28.4238 149.595 27.9704 149.141C27.5131 148.688 27.2344 148.063 27.2344 147.368C27.2344 146.873 27.3829 146.39 27.6581 145.977L38.3289 129.99C38.6338 129.54 39.1396 129.269 39.6821 129.269H58.339C59.0082 129.269 59.4284 129.994 59.0899 130.574L50.0812 146.137C49.7466 146.713 50.1629 147.431 50.8246 147.431H72.8577C73.1962 147.431 73.5011 147.569 73.7239 147.792C73.9436 148.011 74.0812 148.316 74.0812 148.654Z" fill="#FFD700"/>
<path d="M61.2812 121.99H34.8303C34.5223 121.99 34.2725 121.74 34.2725 121.432C34.2725 121.124 34.5223 120.874 34.8303 120.874H61.2812C61.5891 120.874 61.839 121.124 61.839 121.432C61.839 121.74 61.5891 121.99 61.2812 121.99Z" fill="#FFD700"/>
<path d="M62.556 125.336H36.1047C35.7967 125.336 35.5469 125.086 35.5469 124.779C35.5469 124.471 35.7967 124.221 36.1047 124.221H62.5556C62.8635 124.221 63.1134 124.471 63.1134 124.779C63.1134 125.087 62.864 125.336 62.556 125.336Z" fill="#FFD700"/>
<path d="M18.7911 105.843H74.8038C75.2594 105.843 75.6971 105.927 76.1012 106.077C75.5971 104.86 74.4015 104.037 73.0466 104.037H20.5243C19.3585 104.037 18.4224 104.859 18.1865 105.911C18.3796 105.867 18.5818 105.843 18.7911 105.843Z" fill="url(#paint9_linear_2070_1087)"/>
<path d="M76.3338 135.203C75.9 137.388 73.3504 138.723 70.6387 138.184C67.927 137.646 66.0806 135.439 66.5143 133.254C66.9481 131.069 69.4977 129.734 72.2094 130.273C74.9207 130.811 76.7671 133.018 76.3338 135.203Z" fill="url(#paint10_linear_2070_1087)"/>
<path d="M74.0778 148.743C74.0315 149.394 73.4453 149.877 72.7923 149.877H48.2559C47.2652 149.877 46.4619 149.074 46.4619 148.084C46.4619 147.745 46.558 147.413 46.7389 147.126L58.0116 129.269H58.3387C59.0079 129.269 59.4281 129.994 59.0896 130.574L50.0809 146.137C49.7463 146.713 50.1626 147.431 50.8243 147.431H72.8574C73.1959 147.431 73.5008 147.569 73.7235 147.792C73.9625 148.029 74.104 148.369 74.0778 148.743Z" fill="#E5E7EB"/>
<path d="M145.448 147.324C136.332 150.089 102.571 149.877 102.571 149.877L146.191 138.27C150.753 137.056 153.657 132.593 152.916 127.931C150.998 115.881 147.288 94.2593 144.563 88.9346C144.858 89.1089 145.153 89.3163 145.447 89.5653C145.447 89.5653 151.417 98.4609 157.577 116.73C163.738 135.003 154.568 144.563 145.448 147.324Z" fill="#D3AA7D"/>
<path d="M142.876 131.609C142.876 131.609 149.113 131.521 154.178 136.146" stroke="#9C897A" stroke-miterlimit="10" stroke-linecap="round" stroke-linejoin="round"/>
<path d="M129.824 80.8857C129.824 80.8857 138.031 83.6765 142.073 88.4613" stroke="#E5BC89" stroke-miterlimit="10" stroke-linecap="round" stroke-linejoin="round"/>
<path d="M88.9707 115.863C88.9707 115.863 93.503 121.734 94.0831 128.494" stroke="#9C897A" stroke-miterlimit="10" stroke-linecap="round" stroke-linejoin="round"/>
<path d="M112.414 81.6158C112.414 81.6158 110.691 86.4504 117.888 87.0436C125.085 87.6367 132.973 80.5762 132.973 80.5762" stroke="#E5BC89" stroke-miterlimit="10" stroke-linecap="round" stroke-linejoin="round"/>
<path d="M102.571 141.032L100.886 148.299L102.733 148.583L103.674 141.032H102.571Z" fill="#D37A57"/>
<path d="M117.371 85.1465C117.371 85.1465 115.237 91.2268 113.753 106.952" stroke="#E5BC89" stroke-miterlimit="10" stroke-linecap="round" stroke-linejoin="round"/>
<path d="M131.154 48.2007C131.154 48.2007 127.792 47.4052 124.75 48.575" stroke="#543E2F" stroke-miterlimit="10" stroke-linecap="round" stroke-linejoin="round"/>
<path d="M109.077 46.458C109.077 46.458 108.738 51.3808 114.966 52.0841" stroke="#543E2F" stroke-miterlimit="10" stroke-linecap="round" stroke-linejoin="round"/>
<path d="M131.708 44.9561C131.708 44.9561 132.433 46.9125 131.805 48.1338" stroke="#543E2F" stroke-miterlimit="10" stroke-linecap="round" stroke-linejoin="round"/>
<path d="M103.502 42.96C103.502 42.96 103.221 45.9831 106.31 47.1721" stroke="#543E2F" stroke-miterlimit="10" stroke-linecap="round" stroke-linejoin="round"/>
<path d="M104.626 48.5752C104.626 48.5752 104.052 50.8379 106.187 51.8124" stroke="#543E2F" stroke-miterlimit="10" stroke-linecap="round" stroke-linejoin="round"/>
<path d="M114.594 40.8528C114.594 40.8528 118.577 39.106 124.235 41.6482C129.338 43.9415 129.824 46.7964 129.824 46.7964" stroke="#543E2F" stroke-miterlimit="10" stroke-linecap="round" stroke-linejoin="round"/>
<path d="M131.708 49.417C131.708 49.417 132.831 49.9473 132.831 51.5386C132.831 53.1299 132.061 54.7522 132.061 54.7522" stroke="#543E2F" stroke-miterlimit="10" stroke-linecap="round" stroke-linejoin="round"/>
<path d="M113.003 48.8564C113.003 48.8564 113.797 50.9623 118.431 51.1964C123.065 51.4306 124.563 51.4306 125.826 52.9279C127.09 54.4257 126.669 56.0638 126.669 56.0638" stroke="#543E2F" stroke-miterlimit="10" stroke-linecap="round" stroke-linejoin="round"/>
<path d="M111.267 0H69.0956C66.6534 0 64.6738 1.98005 64.6738 4.42225V11.6427C64.6738 14.0849 66.6534 16.0645 69.0956 16.0645H74.6811L73.3816 20.5523C73.1396 21.3879 74.0604 22.0785 74.7947 21.6124L83.5396 16.0645H111.267C113.709 16.0645 115.689 14.0849 115.689 11.6427V4.42225C115.689 1.98005 113.709 0 111.267 0Z" fill="#D9D9D9"/>
<path d="M70.4092 4.32227H110.2" stroke="white" stroke-miterlimit="10" stroke-linecap="round" stroke-linejoin="round"/>
<path d="M70.4092 7.69824H110.2" stroke="white" stroke-miterlimit="10" stroke-linecap="round" stroke-linejoin="round"/>
<path d="M70.4092 11.0742H110.2" stroke="white" stroke-miterlimit="10" stroke-linecap="round" stroke-linejoin="round"/>
<path d="M42.563 79.6884C62.3926 79.6884 78.4677 63.6133 78.4677 43.7837C78.4677 23.954 62.3926 7.87891 42.563 7.87891C22.7333 7.87891 6.6582 23.954 6.6582 43.7837C6.6582 63.6133 22.7333 79.6884 42.563 79.6884Z" stroke="#BBBFBD" stroke-miterlimit="10"/>
<path d="M76.1893 43.78C76.1893 56.3286 69.3153 67.2711 59.1285 73.0492C57.9871 73.6965 56.8038 74.2823 55.5877 74.7925C51.5818 76.4777 47.1818 77.4077 42.566 77.4077C42.259 77.4077 41.9558 77.4033 41.6527 77.395C41.4657 77.3906 41.2792 77.3823 41.0923 77.3701C40.9595 77.3701 40.8306 77.3662 40.6978 77.3535C40.4986 77.3452 40.2994 77.3325 40.1042 77.3164C40.0212 77.312 39.9382 77.3081 39.8552 77.2954C39.6185 77.2827 39.3861 77.2583 39.1537 77.2373C38.8837 77.2085 38.6182 77.1792 38.3526 77.146L46.6672 65.1203L24.5792 41.1727L10.1667 52.8167C10.0173 52.2772 9.88013 51.7373 9.75564 51.1852C9.71021 50.9777 9.66435 50.7659 9.62285 50.5584C9.56475 50.2845 9.51059 50.0063 9.46516 49.7324C9.43197 49.5498 9.39877 49.3672 9.37387 49.1846C9.328 48.923 9.29088 48.6574 9.25331 48.3918C9.23235 48.2424 9.21181 48.097 9.19522 47.9476C9.16595 47.7191 9.13712 47.4867 9.11615 47.2544L9.10349 47.1172C9.07859 46.8682 9.05369 46.6192 9.03709 46.3659C9.01612 46.0877 8.9956 45.8098 8.98293 45.5272V45.5106C8.96633 45.2241 8.95366 44.938 8.94973 44.6471C8.94143 44.3605 8.9375 44.07 8.9375 43.7796C8.9375 38.1963 10.299 32.9327 12.7067 28.2999C17.709 18.6701 27.2358 11.7668 38.4727 10.4013C39.8137 10.2392 41.1792 10.1562 42.5656 10.1562C48.2109 10.1562 53.5369 11.551 58.2068 14.0124L43.562 25.839L53.3377 55.4816L72.2956 28.068C74.782 32.755 76.1893 38.1054 76.1893 43.78Z" fill="url(#paint11_linear_2070_1087)"/>
<path d="M12.6178 28.2715L24.4899 41.1438L10.0774 52.7878C9.92799 52.2483 9.79083 51.7084 9.66634 51.1563C9.62091 50.9488 9.57505 50.737 9.53355 50.5295C9.47545 50.2556 9.42129 49.9774 9.37586 49.7035C9.34266 49.5209 9.30947 49.3383 9.28457 49.1557C9.23914 48.8941 9.20157 48.6285 9.16401 48.3629C9.14304 48.2135 9.12251 48.0681 9.10591 47.9187C9.07665 47.6902 9.04782 47.4578 9.02685 47.2255L9.01462 47.0883C8.98972 46.8393 8.96482 46.5903 8.94823 46.337C8.9277 46.0587 8.90673 45.7809 8.89406 45.4983V45.4817C8.87746 45.1952 8.86523 44.9091 8.86086 44.6182C8.85256 44.3316 8.84863 44.0411 8.84863 43.7507C8.84863 38.1674 10.2102 32.9038 12.6178 28.2715Z" fill="url(#paint12_linear_2070_1087)"/>
<path d="M55.4983 74.7631C51.4923 76.4483 47.0923 77.3782 42.4761 77.3782C42.1691 77.3782 41.8659 77.3739 41.5628 77.3656C41.3758 77.3612 41.1893 77.3529 41.0024 77.3407C40.8696 77.3407 40.7407 77.3363 40.6079 77.3241C40.4087 77.3158 40.2096 77.3031 40.0143 77.2869C39.9313 77.2826 39.8483 77.2786 39.7653 77.266C39.5286 77.2537 39.2962 77.2288 39.0638 77.2079C38.7939 77.179 38.5283 77.1498 38.2627 77.1166L46.5773 65.0908L55.4983 74.7631Z" fill="url(#paint13_linear_2070_1087)"/>
<path d="M58.1179 13.9841L43.473 25.8107L38.3838 10.373C39.7248 10.2109 41.0903 10.1279 42.4767 10.1279C48.122 10.1275 53.4476 11.5222 58.1179 13.9841Z" fill="url(#paint14_linear_2070_1087)"/>
<path d="M76.0997 43.7506C76.0997 56.2992 69.2256 67.2417 59.0388 73.0198L53.248 55.4527L72.206 28.0391C74.6927 32.7256 76.0997 38.076 76.0997 43.7506Z" fill="url(#paint15_linear_2070_1087)"/>
<path d="M46.5773 65.0915L38.2626 77.1172C38.0508 77.0923 37.8394 77.0635 37.6275 77.0299C37.4532 77.005 37.2789 76.9801 37.1046 76.9512C36.9094 76.9224 36.7185 76.8888 36.5233 76.8516C36.266 76.8062 36.0087 76.7603 35.751 76.7062C35.5308 76.6608 35.3111 76.6149 35.0949 76.5651C34.9577 76.5358 34.821 76.5026 34.6839 76.4694C34.5013 76.4279 34.3226 76.3821 34.14 76.3366C33.5464 76.1873 32.9611 76.0169 32.3801 75.8343C32.1683 75.7679 31.9569 75.7015 31.7494 75.6308C31.4672 75.5351 31.189 75.4399 30.9151 75.3359C30.6578 75.2446 30.4005 75.145 30.1472 75.0454C29.8899 74.9458 29.6365 74.8419 29.3876 74.734C29.1386 74.63 28.8896 74.5221 28.6445 74.4103C28.6445 74.4103 28.6406 74.4103 28.6362 74.406C28.3873 74.2937 28.1422 74.1775 27.8972 74.0613C27.1498 73.7044 26.4234 73.3183 25.7096 72.9073C25.4856 72.7745 25.2615 72.6417 25.0413 72.5089C24.5766 72.2306 24.1197 71.9362 23.6754 71.6331C23.4513 71.4837 23.2312 71.33 23.0115 71.1723C22.7913 71.0185 22.5716 70.8569 22.3554 70.6948C22.3471 70.6905 22.3388 70.6822 22.3266 70.6739C22.123 70.5201 21.9155 70.3624 21.7163 70.2047C21.5377 70.0636 21.3634 69.9265 21.1891 69.7815C20.9318 69.574 20.6785 69.3582 20.4295 69.142C20.2386 68.976 20.0517 68.81 19.8651 68.6396C19.6782 68.4693 19.4917 68.295 19.3047 68.1207C19.2838 68.0998 19.2632 68.0832 19.2466 68.0666C19.064 67.8879 18.8815 67.7097 18.6989 67.5271C18.5412 67.3694 18.3835 67.2074 18.2258 67.0457C18.01 66.8217 17.7942 66.5932 17.5863 66.3608C17.4037 66.1616 17.2251 65.9581 17.0508 65.7545C16.9097 65.5968 16.7769 65.4348 16.6441 65.2732C16.5611 65.1819 16.4864 65.0906 16.4117 64.9949C16.2789 64.8329 16.1501 64.6712 16.0217 64.5092C15.8762 64.3266 15.7351 64.144 15.5984 63.9571C15.4114 63.712 15.2289 63.4674 15.0546 63.2141C14.8969 62.9939 14.7431 62.7742 14.5937 62.5497C14.4859 62.392 14.3819 62.2343 14.2784 62.0722C14.212 61.9766 14.1495 61.877 14.0875 61.7774C13.8053 61.3375 13.5314 60.885 13.2698 60.4281C13.1492 60.2123 13.0291 59.9965 12.9085 59.7764C12.6347 59.274 12.373 58.7634 12.128 58.2445C12.0201 58.0287 11.9205 57.8086 11.8209 57.5888C11.7169 57.3565 11.6134 57.1241 11.5138 56.8917C11.5055 56.8751 11.5016 56.8541 11.4933 56.8375C11.3893 56.5925 11.2858 56.3435 11.1862 56.0945C11.1862 56.0862 11.1818 56.0779 11.1779 56.0657C11.0783 55.8167 10.9827 55.5634 10.8914 55.3104C10.8001 55.0698 10.7127 54.8247 10.6297 54.5757C10.555 54.3556 10.4803 54.1315 10.4096 53.9074C10.3598 53.7414 10.3056 53.5711 10.2558 53.4051C10.2519 53.3924 10.2475 53.3841 10.2475 53.3719C10.1894 53.1766 10.1313 52.9818 10.0771 52.7866L24.4896 41.1426L46.5773 65.0915Z" fill="#FFD700"/>
<path d="M72.2063 28.039L53.2484 55.4526L43.4727 25.81L58.1175 13.9834C64.1162 17.138 69.0395 22.0486 72.2063 28.039Z" fill="#FFD700"/>
<path d="M53.2478 55.4527L46.5773 65.0913L24.4893 41.1437L43.4721 25.8096L53.2478 55.4527Z" fill="url(#paint16_linear_2070_1087)"/>
<path d="M48.7009 39.0737L48.8066 37.3033L49.9882 36.7394C53.37 35.1254 55.5243 31.7117 55.5243 27.9639C55.5243 24.7066 54.489 21.535 52.5688 18.9058L51.2497 17.0996L40.0032 20.8649L40.101 25.0893H39.3585C37.8502 25.0893 36.6271 26.3119 36.6271 27.8206C36.6271 29.3289 37.8497 30.552 39.3585 30.552H40.2273L40.3596 36.286V38.2988C40.3596 38.2988 38.3285 40.2557 34.4736 41.916C34.4736 41.916 38.7714 47.3123 45.8735 47.6683C52.9755 48.0243 53.249 43.7536 53.249 43.7536C53.249 43.7536 50.304 41.9907 48.6153 40.5304L48.7009 39.0737Z" fill="#FF996A"/>
<path d="M48.807 37.3031L48.7013 39.0735C48.4021 39.0381 48.0885 38.9914 47.763 38.9319C42.7341 38.0151 40.7654 33.4697 40.9694 31.1279C40.9694 31.1279 42.6655 36.7606 48.807 37.3031Z" fill="#D37A57"/>
<path d="M39.2734 27.0383C39.4839 27.1977 39.6778 27.4087 39.7473 27.6721C39.7473 27.6721 39.3275 27.8119 39.2891 28.2828C39.2511 28.7537 39.7473 28.9572 39.7473 28.9572C39.7473 28.9572 39.3655 29.5932 38.7295 29.2499C38.0935 28.9065 38.1988 27.7071 38.8313 27.4559C38.8313 27.4559 37.8262 27.3415 37.4571 27.7106C37.4571 27.7106 37.3728 27.3406 37.793 27.013C38.2263 26.6758 38.8357 26.7068 39.2734 27.0383Z" fill="#D37A57"/>
<path d="M48.5644 23.711C48.5059 23.7128 48.4474 23.7342 48.3993 23.7757C47.4392 24.6152 46.4516 23.9548 46.4416 23.9478C46.3219 23.8657 46.1585 23.8963 46.0764 24.0159C45.9943 24.1356 46.0248 24.299 46.1441 24.3811C46.6014 24.6947 47.7336 25.0555 48.7448 24.1714C48.854 24.0762 48.8654 23.9102 48.7697 23.801C48.7165 23.739 48.64 23.7089 48.5644 23.711Z" fill="#3F2D1F"/>
<path d="M54.4743 24.3568C54.4227 24.3284 54.3616 24.317 54.2995 24.3288C53.0459 24.5634 52.5309 23.4928 52.5261 23.4819C52.465 23.3499 52.3086 23.2936 52.1771 23.3547C52.0456 23.4159 51.9888 23.5723 52.05 23.7038C52.2846 24.2065 53.076 25.0924 54.3961 24.8456C54.5389 24.8189 54.6328 24.6818 54.6057 24.5389C54.5905 24.4581 54.5407 24.3935 54.4743 24.3568Z" fill="#3F2D1F"/>
<path d="M48.4211 26.8339C48.4211 26.8339 48.4193 27.8569 47.0801 28.0264C45.7408 28.1958 45.4971 26.8339 45.4971 26.8339C45.4971 26.8339 46.2575 26.121 47.2408 26.1C48.2236 26.0791 48.4211 26.8339 48.4211 26.8339Z" fill="white"/>
<path d="M54.5385 26.8333C54.5385 26.8333 54.5368 27.8563 53.2268 28.0258C51.9168 28.1957 51.7412 26.8342 51.7412 26.8342C51.7412 26.8342 52.4222 26.12 53.384 26.099C54.3455 26.0785 54.5385 26.8333 54.5385 26.8333Z" fill="white"/>
<path d="M51.7402 26.835C51.7402 26.835 52.4417 26.064 53.1931 25.9255C53.9439 25.787 54.4594 26.1527 54.538 26.835C54.538 26.835 54.389 26.2715 53.6377 26.2025C52.8869 26.1334 51.7402 26.835 51.7402 26.835Z" fill="#3F2D1F"/>
<path d="M45.4971 26.8339C45.4971 26.8339 46.2305 26.0284 47.0154 25.8838C47.8004 25.7392 48.3389 26.1214 48.4206 26.8339C48.4206 26.8339 48.2651 26.245 47.4802 26.173C46.6952 26.1009 45.4971 26.8339 45.4971 26.8339Z" fill="#3F2D1F"/>
<path d="M50.4541 26.8633L51.0717 30.591C51.0717 30.591 51.5632 30.629 52.2437 30.3516C52.2437 30.3516 50.6306 27.2822 50.4541 26.8633Z" fill="#D37A57"/>
<path d="M46.2959 27.096C46.2959 27.683 46.672 28.1587 47.1359 28.1587C47.5998 28.1587 47.9759 27.683 47.9759 27.096C47.9759 26.5093 47.5998 26.0332 47.1359 26.0332C46.672 26.0332 46.2959 26.5093 46.2959 27.096Z" fill="#3F2D1F"/>
<path d="M52.1855 27.1292C52.1855 27.6979 52.5525 28.1587 53.005 28.1587C53.4575 28.1587 53.824 27.6979 53.824 27.1292C53.824 26.5604 53.4571 26.0996 53.005 26.0996C52.552 26.0996 52.1855 26.5604 52.1855 27.1292Z" fill="#3F2D1F"/>
<path d="M44.6471 30.5933C45.3238 30.5933 45.8724 30.2176 45.8724 29.7541C45.8724 29.2907 45.3238 28.915 44.6471 28.915C43.9704 28.915 43.4219 29.2907 43.4219 29.7541C43.4219 30.2176 43.9704 30.5933 44.6471 30.5933Z" fill="#D37A57"/>
<path d="M54.6544 30.1909C55.3313 30.1909 55.8801 29.8152 55.8801 29.3518C55.8801 28.8884 55.3313 28.5127 54.6544 28.5127C53.9775 28.5127 53.4287 28.8884 53.4287 29.3518C53.4287 29.8152 53.9775 30.1909 54.6544 30.1909Z" fill="#D37A57"/>
<path d="M50.8997 32.0273C50.8997 32.0273 48.9205 32.0941 48.1199 32.8279C47.3192 33.5618 50.2768 33.7841 50.8997 33.4949C51.5222 33.2062 51.7991 31.9347 50.8997 32.0273Z" fill="white"/>
<path d="M46.0752 26.4329C46.0752 26.4329 45.6808 26.6198 45.251 26.3438C45.251 26.3438 45.2912 26.7482 45.4973 26.8338L46.0752 26.4329Z" fill="#3F2D1F"/>
<path d="M54.085 26.1582C54.085 26.1582 54.5506 26.5435 54.9044 26.4251C55.0346 26.3814 54.5397 26.8348 54.5397 26.8348C54.4217 26.405 54.085 26.1582 54.085 26.1582Z" fill="#3F2D1F"/>
<path d="M56.7877 45.9102C56.7877 45.9102 63.0856 57.4209 65.4872 67.0735L58.9936 70.855C58.9936 70.855 56.4125 65.6958 55.5236 57.7791C54.6351 49.862 56.7877 45.9102 56.7877 45.9102Z" fill="#847062"/>
<path d="M53.2477 19.9189C53.2477 19.9189 46.955 25.8744 41.2031 25.2222C41.2031 25.2222 40.5802 29.4029 41.6181 31.0042C41.6181 31.0042 41.1734 31.445 40.5505 29.7716C39.9277 28.0981 40.4195 25.7866 40.0993 25.0894C40.0993 25.0894 38.18 24.6347 36.9189 26.589C35.6579 28.5433 38.418 30.9295 40.2256 30.5517L40.3085 34.1453C40.3085 34.1453 38.2376 34.918 36.4882 33.4355C34.7388 31.953 35.5989 30.4408 35.5989 30.4408C35.5989 30.4408 32.9601 27.8361 32.8413 24.2189C32.7225 20.6017 35.7321 18.3285 35.7321 18.3285C35.7321 18.3285 36.7254 12.9767 43.3374 12.9173C49.9493 12.8579 51.8765 14.8445 51.8765 14.8445C51.8765 14.8445 56.1446 15.5709 57.3471 20.1076C58.5497 24.6443 55.523 27.0703 55.523 27.0703C55.523 27.0703 54.6481 21.2577 53.2477 19.9189Z" fill="#3F2D1F"/>
<path d="M36.845 17.7061C36.845 17.7061 36.527 13.8193 32.8386 13.9836C29.1506 14.1478 28.439 18.3731 30.0399 20.33C31.6413 22.2869 33.7314 21.8422 35.2882 20.33C36.845 18.8182 36.845 17.7061 36.845 17.7061Z" fill="#3F2D1F"/>
<path d="M41.6585 32.9992L39.3339 37.8395C39.2509 38.0138 39.0307 38.0636 38.8774 37.9474L38.7817 37.8727L31.1647 31.9863C31.0485 31.895 31.0109 31.7329 31.0817 31.6001L33.7091 26.7891L33.7715 26.6769C33.8589 26.5109 34.0786 26.4694 34.2241 26.5895L41.5799 32.6376C41.6834 32.7253 41.7166 32.8747 41.6585 32.9992Z" fill="white"/>
<path d="M57.6903 73.7882C53.1449 76.0836 48.0058 77.3748 42.5636 77.3748C38.0846 77.3748 33.8091 76.499 29.9028 74.9051L27.416 46.4243C27.416 46.4243 27.9266 44.4609 30.9734 43.34C34.4355 42.0615 34.4726 41.916 34.4726 41.916C47.6691 48.5577 53.248 43.7506 53.248 43.7506L56.1536 45.2283C56.4402 45.3738 56.6642 45.6145 56.7887 45.9093C57.4737 47.5491 59.7442 53.2359 59.9726 57.1545C60.1517 60.2768 58.674 68.6657 57.6903 73.7882Z" fill="#9C897A"/>
<path d="M28.8725 44.4922C28.8725 44.4922 25.6545 45.7698 24.4895 54.1906C23.3241 62.6114 24.5682 67.073 24.5682 67.073L30.974 59.4686C30.974 59.4686 33.1667 47.8111 28.8725 44.4922Z" fill="#9C897A"/>
<path d="M38.4368 32.1759C37.8227 32.5306 36.224 33.6488 35.9383 34.1197C35.8011 34.3464 35.7439 34.6045 35.7203 34.8133L35.3185 34.6128C35.5211 33.7462 35.8955 32.88 35.8955 32.88C35.8955 32.88 36.5328 32.5389 36.8888 32.0348C37.2448 31.5307 37.1111 31.128 37.1111 31.128C36.8683 31.2682 36.4773 31.5237 36.0698 31.8129C36.0755 31.805 36.0824 31.7981 36.0881 31.7898C36.4437 31.2857 36.3105 30.8829 36.3105 30.8829C35.6727 31.2512 34.0129 32.4122 33.7163 32.9014C33.5564 33.1653 33.5014 33.4693 33.483 33.696L33.3707 33.6401C33.5612 32.7232 33.9831 31.7452 33.9831 31.7452C33.9831 31.7452 34.6205 31.4041 34.9765 30.9C35.332 30.3959 35.1988 29.9932 35.1988 29.9932C34.561 30.3614 32.9012 31.5224 32.6046 32.0117C32.308 32.5009 32.3674 33.1382 32.3674 33.1382L32.6046 37.3189L32.8383 41.9145C32.8383 41.9145 24.3913 61.2468 24.4891 65.9613C24.587 70.6757 27.4157 72.5435 27.4157 72.5435C27.4157 72.5435 30.4402 72.1875 32.3674 69.2102C34.2946 66.2329 36.0737 43.5451 36.0737 43.5451C36.0737 43.5451 37.0819 42.0032 37.2596 40.5285C37.4374 39.0539 36.7604 35.3318 36.7604 35.3318C36.9613 34.5687 37.2662 33.862 37.2662 33.862C37.2662 33.862 37.8804 33.5335 38.2228 33.0482C38.5653 32.5633 38.4368 32.1759 38.4368 32.1759Z" fill="#FF996A"/>
<path d="M41.6585 32.9998L39.3338 37.84C39.2508 38.0143 39.0306 38.0641 38.8773 37.9479L38.7816 37.8732L41.1312 32.8216L33.709 26.7901L33.7714 26.6778C33.8588 26.5119 34.0785 26.4704 34.224 26.5905L41.5798 32.6385C41.6834 32.7259 41.7165 32.8753 41.6585 32.9998Z" fill="#D9D9D9"/>
<path d="M33.7091 27.7578L33.3867 28.3916L34.9881 29.6811L35.355 29.0695L33.7091 27.7578Z" fill="#D9D9D9"/>
<path d="M80.0164 46.8415L78.222 47.1753L78.1735 47.0163C78.6924 46.8389 79.9116 46.3593 80.4052 45.6194C81.0394 44.668 81.2617 43.7481 81.2617 43.7481C81.2617 43.7481 80.1623 44.3234 79.739 45.4215L78.889 45.5796C79.2297 45.3686 79.5455 45.1131 79.7438 44.8156C80.3781 43.8638 80.6004 42.9443 80.6004 42.9443C80.6004 42.9443 79.501 43.5196 79.0777 44.6178L78.0058 44.8169C78.4504 44.4679 78.9161 44.0128 79.1105 43.5205C79.5307 42.4569 79.5543 41.5107 79.5543 41.5107C79.5543 41.5107 78.6007 42.3044 78.4177 43.4668L77.2392 43.959L72.0813 45.57L72.1202 44.8252C72.1202 44.8252 72.3146 44.7086 72.8593 44.2805C73.404 43.8525 74.0837 42.076 74.0837 42.076C74.0837 42.076 71.3807 43.3466 70.722 44.7471C70.0633 46.1475 69.4356 49.61 69.4356 49.61C69.4356 49.61 63.2369 64.5266 62.1361 68.6361C62.1361 68.6361 60.0071 69.4595 58.9941 70.8542C58.9941 70.8542 61.1585 74.8274 62.8782 75.2424C62.8782 75.2424 67.8596 74.2936 70.2315 68.4819C72.6033 62.6702 73.5591 50.9318 73.5591 50.9318L78.5382 48.2088C78.5382 48.2088 80.0426 47.7807 80.5611 47.0027C81.08 46.2248 81.2613 45.4726 81.2613 45.4726C81.2613 45.4726 80.3624 45.9439 80.0164 46.8415Z" fill="#FF996A"/>
<path d="M57.8398 63.7697C57.8398 63.7697 54.9232 63.208 49.9314 63.208C44.9395 63.208 39.9473 64.1441 39.9473 64.1441" stroke="#847062" stroke-miterlimit="10" stroke-linecap="round" stroke-linejoin="round"/>
<path d="M52.583 16.4082C52.583 16.4082 53.3863 17.889 53.3173 18.9041" stroke="#543E2F" stroke-miterlimit="10" stroke-linecap="round" stroke-linejoin="round"/>
<path d="M51.3493 15.2842C51.3493 15.2842 48.0899 16.3452 46.2959 18.9036" stroke="#543E2F" stroke-miterlimit="10" stroke-linecap="round" stroke-linejoin="round"/>
<path d="M36.2337 16.9385C36.2337 16.9385 35.7035 18.124 35.672 18.5608C35.672 18.5608 33.93 20.1831 33.709 21.1192" stroke="#543E2F" stroke-miterlimit="10" stroke-linecap="round" stroke-linejoin="round"/>
<path d="M29.6816 21.3369C29.8066 21.4304 31.5293 22.7356 33.2967 21.6357" stroke="#543E2F" stroke-miterlimit="10" stroke-linecap="round" stroke-linejoin="round"/>
<path d="M38.3828 16.4075C38.3828 16.4075 42.4263 12.6789 49.1191 14.6446" stroke="#543E2F" stroke-miterlimit="10" stroke-linecap="round" stroke-linejoin="round"/>
<path d="M39.1973 24.1081C39.1973 24.1081 40.934 24.8083 44.6469 24.1081C48.3598 23.4079 51.7402 19.6055 51.7402 19.6055" stroke="#543E2F" stroke-miterlimit="10" stroke-linecap="round" stroke-linejoin="round"/>
<path d="M37.6982 44.4922C37.6982 44.4922 42.7757 46.6098 47.9759 46.2979C53.1761 45.9861 53.8239 45.05 53.8239 45.05" stroke="#847062" stroke-miterlimit="10" stroke-linecap="round" stroke-linejoin="round"/>
<defs>
<linearGradient id="paint0_linear_2070_1087" x1="4.26732" y1="90.1909" x2="13.0844" y2="93.2577" gradientUnits="userSpaceOnUse">
<stop stop-color="#0C7A43"/>
<stop offset="1" stop-color="#2DBE60"/>
</linearGradient>
<linearGradient id="paint1_linear_2070_1087" x1="83.2471" y1="40.5176" x2="99.753" y2="40.5176" gradientUnits="userSpaceOnUse">
<stop stop-color="#0C7A43"/>
<stop offset="1" stop-color="#2DBE60"/>
</linearGradient>
<linearGradient id="paint2_linear_2070_1087" x1="121.728" y1="34.3493" x2="146.24" y2="65.2545" gradientUnits="userSpaceOnUse">
<stop stop-color="#0C7A43"/>
<stop offset="1" stop-color="#2DBE60"/>
</linearGradient>
<linearGradient id="paint3_linear_2070_1087" x1="86.8028" y1="104.137" x2="112.633" y2="142.347" gradientUnits="userSpaceOnUse">
<stop stop-color="#0C7A43"/>
<stop offset="1" stop-color="#2DBE60"/>
</linearGradient>
<linearGradient id="paint4_linear_2070_1087" x1="125.356" y1="58.3891" x2="130.563" y2="61.7712" gradientUnits="userSpaceOnUse">
<stop stop-color="#0C7A43"/>
<stop offset="1" stop-color="#2DBE60"/>
</linearGradient>
<linearGradient id="paint5_linear_2070_1087" x1="115.594" y1="65.3681" x2="121.889" y2="72.6627" gradientUnits="userSpaceOnUse">
<stop stop-color="#0C7A43"/>
<stop offset="1" stop-color="#2DBE60"/>
</linearGradient>
<linearGradient id="paint6_linear_2070_1087" x1="-20.785" y1="151.624" x2="-20.4305" y2="158.586" gradientUnits="userSpaceOnUse">
<stop stop-color="#0C7A43"/>
<stop offset="1" stop-color="#2DBE60"/>
</linearGradient>
<linearGradient id="paint7_linear_2070_1087" x1="-4.7761" y1="116.882" x2="17.1148" y2="156.015" gradientUnits="userSpaceOnUse">
<stop stop-color="#0C7A43"/>
<stop offset="1" stop-color="#2DBE60"/>
</linearGradient>
<linearGradient id="paint8_linear_2070_1087" x1="23.718" y1="133.035" x2="29.3689" y2="139.931" gradientUnits="userSpaceOnUse">
<stop stop-color="#0C7A43"/>
<stop offset="1" stop-color="#2DBE60"/>
</linearGradient>
<linearGradient id="paint9_linear_2070_1087" x1="-2.28939" y1="104.758" x2="-2.18787" y2="107.64" gradientUnits="userSpaceOnUse">
<stop stop-color="#0C7A43"/>
<stop offset="1" stop-color="#2DBE60"/>
</linearGradient>
<linearGradient id="paint10_linear_2070_1087" x1="62.9349" y1="133.035" x2="68.5858" y2="139.931" gradientUnits="userSpaceOnUse">
<stop stop-color="#0C7A43"/>
<stop offset="1" stop-color="#2DBE60"/>
</linearGradient>
<linearGradient id="paint11_linear_2070_1087" x1="-14.8396" y1="33.9332" x2="32.7143" y2="81.4875" gradientUnits="userSpaceOnUse">
<stop stop-color="#0C7A43"/>
<stop offset="1" stop-color="#2DBE60"/>
</linearGradient>
<linearGradient id="paint12_linear_2070_1087" x1="3.31862" y1="36.9393" x2="19.0396" y2="46.9692" gradientUnits="userSpaceOnUse">
<stop stop-color="#0C7A43"/>
<stop offset="1" stop-color="#2DBE60"/>
</linearGradient>
<linearGradient id="paint13_linear_2070_1087" x1="32.169" y1="69.4351" x2="40.3827" y2="80.9565" gradientUnits="userSpaceOnUse">
<stop stop-color="#0C7A43"/>
<stop offset="1" stop-color="#2DBE60"/>
</linearGradient>
<linearGradient id="paint14_linear_2070_1087" x1="31.4067" y1="15.6726" x2="42.2096" y2="29.2663" gradientUnits="userSpaceOnUse">
<stop stop-color="#0C7A43"/>
<stop offset="1" stop-color="#2DBE60"/>
</linearGradient>
<linearGradient id="paint15_linear_2070_1087" x1="45.1688" y1="43.9422" x2="70.8561" y2="56.9921" gradientUnits="userSpaceOnUse">
<stop stop-color="#0C7A43"/>
<stop offset="1" stop-color="#2DBE60"/>
</linearGradient>
<linearGradient id="paint16_linear_2070_1087" x1="14.3216" y1="39.6978" x2="40.8002" y2="59.083" gradientUnits="userSpaceOnUse">
<stop stop-color="#0C7A43"/>
<stop offset="1" stop-color="#2DBE60"/>
</linearGradient>
</defs>
</svg>
