<svg width="27" height="29" viewBox="0 0 27 29" fill="none" xmlns="http://www.w3.org/2000/svg">
<g clip-path="url(#clip0_16_38)">
<path d="M26.9906 13.9766C26.9906 14.8203 26.2875 15.4813 25.4906 15.4813H23.9906L24.0234 22.9906C24.0234 23.1172 24.0141 23.2437 24 23.3703V24.125C24 25.1609 23.1609 26 22.125 26H21.375C21.3234 26 21.2719 26 21.2203 25.9953C21.1547 26 21.0891 26 21.0234 26H19.5H18.375C17.3391 26 16.5 25.1609 16.5 24.125V23V20C16.5 19.1703 15.8297 18.5 15 18.5H12C11.1703 18.5 10.5 19.1703 10.5 20V23V24.125C10.5 25.1609 9.66094 26 8.625 26H7.5H6.00469C5.93438 26 5.86406 25.9953 5.79375 25.9906C5.7375 25.9953 5.68125 26 5.625 26H4.875C3.83906 26 3 25.1609 3 24.125V18.875C3 18.8328 3 18.7859 3.00469 18.7438V15.4813H1.5C0.65625 15.4813 0 14.825 0 13.9766C0 13.5547 0.140625 13.1797 0.46875 12.8516L12.4875 2.375C12.8156 2.04688 13.1906 2 13.5187 2C13.8469 2 14.2219 2.09375 14.5031 2.32812L26.475 12.8516C26.85 13.1797 27.0375 13.5547 26.9906 13.9766Z" fill="#5CC7BD"/>
</g>
<defs>
<clipPath id="clip0_16_38">
<path d="M0 2H27V26H0V2Z" fill="white"/>
</clipPath>
</defs>
</svg>
