<svg width="24" height="24" viewBox="0 0 24 24" fill="none" xmlns="http://www.w3.org/2000/svg">
<g clip-path="url(#clip0_2008_992)">
<path d="M13.6034 16.9096C13.358 16.9325 13.1117 16.8771 12.8997 16.7514C12.8233 16.6729 12.7655 16.5782 12.7305 16.4744C12.6956 16.3705 12.6845 16.2601 12.6979 16.1514C12.7037 15.968 12.7256 15.7855 12.7634 15.6059C12.8 15.4 12.8473 15.1961 12.9052 14.995L13.5488 12.7805C13.6152 12.5619 13.6591 12.337 13.6797 12.1095C13.6797 11.8641 13.7125 11.695 13.7125 11.5968C13.7192 11.3809 13.6771 11.1662 13.5893 10.9688C13.5014 10.7714 13.3701 10.5964 13.2052 10.4568C12.7941 10.1413 12.2823 9.98614 11.7652 10.0205C11.3946 10.026 11.027 10.0867 10.6743 10.2005C10.2888 10.3205 9.88334 10.4641 9.4579 10.6314L9.27246 11.3514C9.3979 11.3077 9.55066 11.2587 9.72518 11.2041C9.89167 11.1548 10.0643 11.1291 10.2379 11.1277C10.4815 11.1013 10.7266 11.1612 10.9306 11.2968C10.9992 11.3786 11.0505 11.4735 11.0814 11.5757C11.1124 11.6779 11.1223 11.7853 11.1106 11.8914C11.11 12.0748 11.0899 12.2576 11.0506 12.4368C11.0124 12.6277 10.9633 12.8295 10.9033 13.0423L10.2543 15.2677C10.2019 15.4745 10.1601 15.6839 10.1288 15.895C10.1033 16.0757 10.0906 16.2579 10.0906 16.4404C10.0893 16.6578 10.1378 16.8725 10.2323 17.0682C10.3269 17.264 10.465 17.4354 10.6361 17.5695C11.0534 17.89 11.5726 18.0488 12.0979 18.0168C12.4677 18.0244 12.8363 17.9709 13.1888 17.8586C13.4979 17.7531 13.9106 17.6022 14.427 17.4058L14.6015 16.7186C14.4617 16.7766 14.3176 16.824 14.1706 16.8604C13.9847 16.9028 13.7938 16.9194 13.6034 16.9096ZM14.2852 6.40958C13.9883 6.13695 13.5972 5.99028 13.1943 6.0005C12.7915 5.99142 12.4008 6.13794 12.1033 6.40958C11.5581 6.87974 11.4972 7.70291 11.9674 8.2482C12.0093 8.29681 12.0547 8.34224 12.1033 8.38414C12.7245 8.93975 13.664 8.93975 14.2851 8.38414C14.8304 7.90934 14.8875 7.08247 14.4127 6.53722C14.3732 6.49177 14.3306 6.44912 14.2852 6.40958Z" fill="black"/>
<path d="M12 0C5.37258 0 0 5.37258 0 12C0 18.6274 5.37258 24 12 24C18.6274 24 24 18.6274 24 12C24 5.37258 18.6274 0 12 0ZM12 22.9091C5.97506 22.9091 1.09092 18.0249 1.09092 12C1.09092 5.97506 5.97506 1.09092 12 1.09092C18.0249 1.09092 22.9091 5.97506 22.9091 12C22.9091 18.0249 18.0249 22.9091 12 22.9091Z" fill="black"/>
</g>
<defs>
<clipPath id="clip0_2008_992">
<rect width="24" height="24" fill="white"/>
</clipPath>
</defs>
</svg>
