<svg width="40" height="38" viewBox="0 0 40 38" fill="none" xmlns="http://www.w3.org/2000/svg">
<path d="M0 8C0 3.58172 3.58172 0 8 0H32C36.4183 0 40 3.58172 40 8V30C40 34.4183 36.4183 38 32 38H8C3.58172 38 0 34.4183 0 30V8Z" fill="#FAF5FF"/>
<g clip-path="url(#clip0_95_114)">
<path d="M13.8125 10C14.5584 10 15.2738 10.2963 15.8012 10.8238C16.3287 11.3512 16.625 12.0666 16.625 12.8125C16.625 13.5584 16.3287 14.2738 15.8012 14.8012C15.2738 15.3287 14.5584 15.625 13.8125 15.625C13.0666 15.625 12.3512 15.3287 11.8238 14.8012C11.2963 14.2738 11 13.5584 11 12.8125C11 12.0666 11.2963 11.3512 11.8238 10.8238C12.3512 10.2963 13.0666 10 13.8125 10ZM26.75 10C27.4959 10 28.2113 10.2963 28.7387 10.8238C29.2662 11.3512 29.5625 12.0666 29.5625 12.8125C29.5625 13.5584 29.2662 14.2738 28.7387 14.8012C28.2113 15.3287 27.4959 15.625 26.75 15.625C26.0041 15.625 25.2887 15.3287 24.7613 14.8012C24.2338 14.2738 23.9375 13.5584 23.9375 12.8125C23.9375 12.0666 24.2338 11.3512 24.7613 10.8238C25.2887 10.2963 26.0041 10 26.75 10ZM8.75 20.5012C8.75 18.4305 10.4305 16.75 12.5012 16.75H14.0023C14.5613 16.75 15.0922 16.873 15.5703 17.091C15.5246 17.3441 15.5035 17.6078 15.5035 17.875C15.5035 19.218 16.0941 20.4238 17.0258 21.25C17.0188 21.25 17.0117 21.25 17.0012 21.25H9.49883C9.0875 21.25 8.75 20.9125 8.75 20.5012ZM22.9988 21.25C22.9918 21.25 22.9848 21.25 22.9742 21.25C23.9094 20.4238 24.4965 19.218 24.4965 17.875C24.4965 17.6078 24.4719 17.3477 24.4297 17.091C24.9078 16.8695 25.4387 16.75 25.9977 16.75H27.4988C29.5695 16.75 31.25 18.4305 31.25 20.5012C31.25 20.916 30.9125 21.25 30.5012 21.25H22.9988ZM16.625 17.875C16.625 16.9799 16.9806 16.1214 17.6135 15.4885C18.2465 14.8556 19.1049 14.5 20 14.5C20.8951 14.5 21.7536 14.8556 22.3865 15.4885C23.0194 16.1214 23.375 16.9799 23.375 17.875C23.375 18.7701 23.0194 19.6286 22.3865 20.2615C21.7536 20.8944 20.8951 21.25 20 21.25C19.1049 21.25 18.2465 20.8944 17.6135 20.2615C16.9806 19.6286 16.625 18.7701 16.625 17.875ZM13.25 27.0613C13.25 24.4738 15.3488 22.375 17.9363 22.375H22.0637C24.6512 22.375 26.75 24.4738 26.75 27.0613C26.75 27.5781 26.3316 28 25.8113 28H14.1887C13.6719 28 13.25 27.5816 13.25 27.0613Z" fill="#9333EA"/>
</g>
<defs>
<clipPath id="clip0_95_114">
<path d="M8.75 10H31.25V28H8.75V10Z" fill="white"/>
</clipPath>
</defs>
</svg>
