<svg width="14" height="14" viewBox="0 0 14 14" fill="none" xmlns="http://www.w3.org/2000/svg">
<g clip-path="url(#clip0_103_1619)">
<path d="M11.1179 10.2431L13.7429 7.61807C14.0847 7.27627 14.0847 6.72119 13.7429 6.37939L11.1179 3.75439C10.7761 3.4126 10.2211 3.4126 9.87927 3.75439C9.53748 4.09619 9.53748 4.65127 9.87927 4.99307L11.0113 6.1251H2.98591L4.11794 4.99307C4.45974 4.65127 4.45974 4.09619 4.11794 3.75439C3.77615 3.4126 3.22107 3.4126 2.87927 3.75439L0.254272 6.37939C-0.0875244 6.72119 -0.0875244 7.27627 0.254272 7.61807L2.87927 10.2431C3.22107 10.5849 3.77615 10.5849 4.11794 10.2431C4.45974 9.90127 4.45974 9.34619 4.11794 9.00439L2.98865 7.8751H11.014L9.88201 9.00713C9.54021 9.34893 9.54021 9.904 9.88201 10.2458C10.2238 10.5876 10.7789 10.5876 11.1207 10.2458L11.1179 10.2431Z" fill="#9CA3AF"/>
</g>
<defs>
<clipPath id="clip0_103_1619">
<path d="M0 0H14V14H0V0Z" fill="white"/>
</clipPath>
</defs>
</svg>
