<svg width="24" height="24" viewBox="0 0 24 24" fill="none" xmlns="http://www.w3.org/2000/svg">
<g clip-path="url(#clip0_4174_415)">
<path d="M21.1875 1.875H20.0625V0H18.1875V1.875H5.8125V0H3.9375V1.875H2.8125C1.26169 1.875 0 3.13669 0 4.6875V21.1875C0 22.7383 1.26169 24 2.8125 24H21.1875C22.7383 24 24 22.7383 24 21.1875V4.6875C24 3.13669 22.7383 1.875 21.1875 1.875ZM22.125 21.1875C22.125 21.7044 21.7044 22.125 21.1875 22.125H2.8125C2.29556 22.125 1.875 21.7044 1.875 21.1875V8.8125H22.125V21.1875ZM22.125 6.9375H1.875V4.6875C1.875 4.17056 2.29556 3.75 2.8125 3.75H3.9375V5.625H5.8125V3.75H18.1875V5.625H20.0625V3.75H21.1875C21.7044 3.75 22.125 4.17056 22.125 4.6875V6.9375Z" fill="#9CA3AF"/>
<path d="M3.5625 10.7812H5.4375V12.6562H3.5625V10.7812ZM7.3125 10.7812H9.1875V12.6562H7.3125V10.7812ZM11.0625 10.7812H12.9375V12.6562H11.0625V10.7812ZM14.8125 10.7812H16.6875V12.6562H14.8125V10.7812ZM18.5625 10.7812H20.4375V12.6562H18.5625V10.7812ZM3.5625 14.5312H5.4375V16.4062H3.5625V14.5312ZM7.3125 14.5312H9.1875V16.4062H7.3125V14.5312ZM11.0625 14.5312H12.9375V16.4062H11.0625V14.5312ZM14.8125 14.5312H16.6875V16.4062H14.8125V14.5312ZM3.5625 18.2812H5.4375V20.1562H3.5625V18.2812ZM7.3125 18.2812H9.1875V20.1562H7.3125V18.2812ZM11.0625 18.2812H12.9375V20.1562H11.0625V18.2812ZM14.8125 18.2812H16.6875V20.1562H14.8125V18.2812ZM18.5625 14.5312H20.4375V16.4062H18.5625V14.5312Z" fill="#9CA3AF"/>
</g>
<defs>
<clipPath id="clip0_4174_415">
<rect width="24" height="24" fill="white"/>
</clipPath>
</defs>
</svg>
