<svg width="32" height="32" viewBox="0 0 32 32" fill="none" xmlns="http://www.w3.org/2000/svg">
<path d="M24 0C28.4183 0 32 3.58172 32 8V24C32 28.4183 28.4183 32 24 32H8C3.58172 32 0 28.4183 0 24V8C0 3.58172 3.58172 0 8 0H24Z" fill="#E5E7EB"/>
<path d="M24 0C28.4183 0 32 3.58172 32 8V24C32 28.4183 28.4183 32 24 32H8C3.58172 32 0 28.4183 0 24V8C0 3.58172 3.58172 0 8 0H24Z" stroke="#E5E7EB"/>
<g clip-path="url(#clip0_794_2808)">
<path d="M13.077 10.7719L12.7926 11.625H10.75C9.78477 11.625 9 12.4098 9 13.375V20.375C9 21.3402 9.78477 22.125 10.75 22.125H21.25C22.2152 22.125 23 21.3402 23 20.375V13.375C23 12.4098 22.2152 11.625 21.25 11.625H19.2074L18.923 10.7719C18.7453 10.2359 18.2449 9.875 17.6789 9.875H14.3211C13.7551 9.875 13.2547 10.2359 13.077 10.7719ZM16 14.25C16.6962 14.25 17.3639 14.5266 17.8562 15.0188C18.3484 15.5111 18.625 16.1788 18.625 16.875C18.625 17.5712 18.3484 18.2389 17.8562 18.7312C17.3639 19.2234 16.6962 19.5 16 19.5C15.3038 19.5 14.6361 19.2234 14.1438 18.7312C13.6516 18.2389 13.375 17.5712 13.375 16.875C13.375 16.1788 13.6516 15.5111 14.1438 15.0188C14.6361 14.5266 15.3038 14.25 16 14.25Z" fill="#4B5563"/>
</g>
<defs>
<clipPath id="clip0_794_2808">
<rect width="14" height="14" fill="white" transform="translate(9 9)"/>
</clipPath>
</defs>
</svg>
