<svg width="24" height="24" viewBox="0 0 24 24" fill="none" xmlns="http://www.w3.org/2000/svg">
<g clip-path="url(#clip0_2008_1008)">
<path d="M1.2 19.6H3.2V22C3.20064 22.5302 3.41155 23.0386 3.78649 23.4135C4.16142 23.7884 4.66976 23.9994 5.2 24H18.8C19.3302 23.9994 19.8386 23.7884 20.2135 23.4135C20.5884 23.0386 20.7994 22.5302 20.8 22V19.6H22.8C23.1183 19.6 23.4235 19.4736 23.6485 19.2485C23.8736 19.0235 24 18.7183 24 18.4V14.4C24 14.0817 23.8736 13.7765 23.6485 13.5515C23.4235 13.3264 23.1183 13.2 22.8 13.2H20.8V10.8C20.7994 10.2698 20.5884 9.76142 20.2135 9.38649C19.8386 9.01155 19.3302 8.80064 18.8 8.8V6.8C18.8 3.0444 15.7556 0 12 0C8.2444 0 5.2 3.0444 5.2 6.8V8.8C4.66976 8.80064 4.16142 9.01155 3.78649 9.38649C3.41155 9.76142 3.20064 10.2698 3.2 10.8V13.2H1.2C0.88174 13.2 0.576516 13.3264 0.351472 13.5515C0.126428 13.7765 0 14.0817 0 14.4L0 18.4C0 18.7183 0.126428 19.0235 0.351472 19.2485C0.576516 19.4736 0.88174 19.6 1.2 19.6ZM20 22C20 22.3183 19.8736 22.6235 19.6485 22.8485C19.4235 23.0736 19.1183 23.2 18.8 23.2H5.2C4.88174 23.2 4.57652 23.0736 4.35147 22.8485C4.12643 22.6235 4 22.3183 4 22V19.6H20V22ZM6 6.8C6 3.4864 8.6864 0.8 12 0.8C15.3136 0.8 18 3.4864 18 6.8V8.8H16.4V6.8C16.4 4.37 14.43 2.4 12 2.4C9.57 2.4 7.6 4.37 7.6 6.8V8.8H6V6.8ZM8.4 8.8V6.8C8.4 5.84522 8.77929 4.92955 9.45442 4.25442C10.1295 3.57928 11.0452 3.2 12 3.2C12.9548 3.2 13.8705 3.57928 14.5456 4.25442C15.2207 4.92955 15.6 5.84522 15.6 6.8V8.8H8.4ZM4 10.8C4 10.4817 4.12643 10.1765 4.35147 9.95147C4.57652 9.72643 4.88174 9.6 5.2 9.6H18.8C19.1183 9.6 19.4235 9.72643 19.6485 9.95147C19.8736 10.1765 20 10.4817 20 10.8V13.2H4V10.8ZM0.8 14.4C0.8 14.2939 0.842143 14.1922 0.917157 14.1172C0.992172 14.0421 1.09391 14 1.2 14H22.8C22.9061 14 23.0078 14.0421 23.0828 14.1172C23.1579 14.1922 23.2 14.2939 23.2 14.4V18.4C23.2 18.5061 23.1579 18.6078 23.0828 18.6828C23.0078 18.7579 22.9061 18.8 22.8 18.8H1.2C1.09391 18.8 0.992172 18.7579 0.917157 18.6828C0.842143 18.6078 0.8 18.5061 0.8 18.4V14.4Z" fill="black"/>
<path d="M1.66688 17.4204C1.69603 17.4641 1.7335 17.5017 1.77716 17.5309C1.82082 17.5601 1.86981 17.5805 1.92133 17.5908C1.97285 17.6011 2.02589 17.6011 2.07742 17.5909C2.12896 17.5807 2.17798 17.5604 2.22168 17.5312L2.79968 17.1456V17.5984C2.79968 17.7045 2.84182 17.8063 2.91684 17.8813C2.99185 17.9563 3.09359 17.9984 3.19968 17.9984C3.30577 17.9984 3.40751 17.9563 3.48252 17.8813C3.55754 17.8063 3.59968 17.7045 3.59968 17.5984V17.1456L4.17768 17.5312C4.26594 17.5901 4.37398 17.6115 4.47803 17.5907C4.58207 17.57 4.6736 17.5087 4.73248 17.4204C4.79136 17.3322 4.81276 17.2241 4.79198 17.1201C4.7712 17.016 4.70994 16.9245 4.62168 16.8656L3.91968 16.3984L4.62048 15.9312C4.66418 15.9021 4.70172 15.8646 4.73094 15.8209C4.76016 15.7773 4.78049 15.7283 4.79078 15.6768C4.80107 15.6253 4.80111 15.5722 4.7909 15.5207C4.78069 15.4692 4.76043 15.4201 4.73128 15.3764C4.70213 15.3327 4.66465 15.2952 4.62099 15.266C4.57733 15.2368 4.52834 15.2164 4.47683 15.2061C4.42531 15.1958 4.37227 15.1958 4.32073 15.206C4.2692 15.2162 4.22018 15.2365 4.17648 15.2656L3.59968 15.6512V15.1984C3.59968 15.0924 3.55754 14.9906 3.48252 14.9156C3.40751 14.8406 3.30577 14.7984 3.19968 14.7984C3.09359 14.7984 2.99185 14.8406 2.91684 14.9156C2.84182 14.9906 2.79968 15.0924 2.79968 15.1984V15.6512L2.22168 15.2656C2.13341 15.2068 2.02538 15.1854 1.92133 15.2061C1.81729 15.2269 1.72576 15.2882 1.66688 15.3764C1.608 15.4647 1.5866 15.5727 1.60738 15.6768C1.62815 15.7808 1.68941 15.8724 1.77768 15.9312L2.47968 16.3984L1.77768 16.8656C1.73397 16.8948 1.69643 16.9323 1.66721 16.9759C1.63798 17.0196 1.61764 17.0686 1.60736 17.1201C1.59707 17.1716 1.59703 17.2246 1.60724 17.2762C1.61745 17.3277 1.63772 17.3767 1.66688 17.4204ZM6.06688 17.4204C6.09603 17.4641 6.1335 17.5017 6.17716 17.5309C6.22082 17.5601 6.26981 17.5805 6.32133 17.5908C6.37285 17.6011 6.42589 17.6011 6.47742 17.5909C6.52896 17.5807 6.57798 17.5604 6.62168 17.5312L7.19968 17.1456V17.5984C7.19968 17.7045 7.24182 17.8063 7.31684 17.8813C7.39185 17.9563 7.49359 17.9984 7.59968 17.9984C7.70577 17.9984 7.80751 17.9563 7.88252 17.8813C7.95754 17.8063 7.99968 17.7045 7.99968 17.5984V17.1456L8.57768 17.5312C8.66594 17.5901 8.77398 17.6115 8.87803 17.5907C8.98207 17.57 9.0736 17.5087 9.13248 17.4204C9.19136 17.3322 9.21276 17.2241 9.19198 17.1201C9.1712 17.016 9.10994 16.9245 9.02168 16.8656L8.31968 16.3984L9.02048 15.9312C9.06418 15.9021 9.10172 15.8646 9.13094 15.8209C9.16016 15.7773 9.18049 15.7283 9.19078 15.6768C9.20107 15.6253 9.20111 15.5722 9.1909 15.5207C9.18069 15.4692 9.16043 15.4201 9.13128 15.3764C9.10213 15.3327 9.06465 15.2952 9.02099 15.266C8.97733 15.2368 8.92834 15.2164 8.87683 15.2061C8.82531 15.1958 8.77227 15.1958 8.72073 15.206C8.6692 15.2162 8.62018 15.2365 8.57648 15.2656L7.99968 15.6512V15.1984C7.99968 15.0924 7.95754 14.9906 7.88252 14.9156C7.80751 14.8406 7.70577 14.7984 7.59968 14.7984C7.49359 14.7984 7.39185 14.8406 7.31684 14.9156C7.24182 14.9906 7.19968 15.0924 7.19968 15.1984V15.6512L6.62168 15.2656C6.53341 15.2068 6.42538 15.1854 6.32133 15.2061C6.21729 15.2269 6.12576 15.2882 6.06688 15.3764C6.008 15.4647 5.9866 15.5727 6.00738 15.6768C6.02816 15.7808 6.08941 15.8724 6.17768 15.9312L6.87968 16.3984L6.17888 16.8656C6.13507 16.8947 6.09742 16.9321 6.06809 16.9757C6.03875 17.0193 6.01829 17.0683 6.00789 17.1198C5.99749 17.1714 5.99734 17.2244 6.00746 17.276C6.01759 17.3276 6.03778 17.3767 6.06688 17.4204ZM14.8669 17.4204C14.896 17.4641 14.9335 17.5017 14.9772 17.5309C15.0208 17.5601 15.0698 17.5805 15.1213 17.5908C15.1728 17.6011 15.2259 17.6011 15.2774 17.5909C15.329 17.5807 15.378 17.5604 15.4217 17.5312L15.9997 17.1456V17.5984C15.9997 17.7045 16.0418 17.8063 16.1168 17.8813C16.1919 17.9563 16.2936 17.9984 16.3997 17.9984C16.5058 17.9984 16.6075 17.9563 16.6825 17.8813C16.7575 17.8063 16.7997 17.7045 16.7997 17.5984V17.1456L17.3777 17.5312C17.4659 17.5901 17.574 17.6115 17.678 17.5907C17.7821 17.57 17.8736 17.5087 17.9325 17.4204C17.9914 17.3322 18.0128 17.2241 17.992 17.1201C17.9712 17.016 17.9099 16.9245 17.8217 16.8656L17.1197 16.3984L17.8205 15.9312C17.8642 15.9021 17.9017 15.8646 17.9309 15.8209C17.9602 15.7773 17.9805 15.7283 17.9908 15.6768C18.0011 15.6253 18.0011 15.5722 17.9909 15.5207C17.9807 15.4692 17.9604 15.4201 17.9313 15.3764C17.9021 15.3327 17.8647 15.2952 17.821 15.266C17.7773 15.2368 17.7283 15.2164 17.6768 15.2061C17.6253 15.1958 17.5723 15.1958 17.5207 15.206C17.4692 15.2162 17.4202 15.2365 17.3765 15.2656L16.7997 15.6512V15.1984C16.7997 15.0924 16.7575 14.9906 16.6825 14.9156C16.6075 14.8406 16.5058 14.7984 16.3997 14.7984C16.2936 14.7984 16.1919 14.8406 16.1168 14.9156C16.0418 14.9906 15.9997 15.0924 15.9997 15.1984V15.6512L15.4217 15.2656C15.3334 15.2068 15.2254 15.1854 15.1213 15.2061C15.0173 15.2269 14.9258 15.2882 14.8669 15.3764C14.808 15.4647 14.7866 15.5727 14.8074 15.6768C14.8282 15.7808 14.8894 15.8724 14.9777 15.9312L15.6797 16.3984L14.9789 16.8656C14.9351 16.8947 14.8974 16.9321 14.8681 16.9757C14.8387 17.0193 14.8183 17.0683 14.8079 17.1198C14.7975 17.1714 14.7973 17.2244 14.8075 17.276C14.8176 17.3276 14.8378 17.3767 14.8669 17.4204ZM10.4669 17.4204C10.496 17.4641 10.5335 17.5017 10.5772 17.5309C10.6208 17.5601 10.6698 17.5805 10.7213 17.5908C10.7728 17.6011 10.8259 17.6011 10.8774 17.5909C10.929 17.5807 10.978 17.5604 11.0217 17.5312L11.5997 17.1456V17.5984C11.5997 17.7045 11.6418 17.8063 11.7168 17.8813C11.7919 17.9563 11.8936 17.9984 11.9997 17.9984C12.1058 17.9984 12.2075 17.9563 12.2825 17.8813C12.3575 17.8063 12.3997 17.7045 12.3997 17.5984V17.1456L12.9777 17.5312C13.0659 17.5901 13.174 17.6115 13.278 17.5907C13.3821 17.57 13.4736 17.5087 13.5325 17.4204C13.5914 17.3322 13.6128 17.2241 13.592 17.1201C13.5712 17.016 13.5099 16.9245 13.4217 16.8656L12.7197 16.3984L13.4205 15.9312C13.4642 15.9021 13.5017 15.8646 13.5309 15.8209C13.5602 15.7773 13.5805 15.7283 13.5908 15.6768C13.6011 15.6253 13.6011 15.5722 13.5909 15.5207C13.5807 15.4692 13.5604 15.4201 13.5313 15.3764C13.5021 15.3327 13.4647 15.2952 13.421 15.266C13.3773 15.2368 13.3283 15.2164 13.2768 15.2061C13.2253 15.1958 13.1723 15.1958 13.1207 15.206C13.0692 15.2162 13.0202 15.2365 12.9765 15.2656L12.3997 15.6512V15.1984C12.3997 15.0924 12.3575 14.9906 12.2825 14.9156C12.2075 14.8406 12.1058 14.7984 11.9997 14.7984C11.8936 14.7984 11.7919 14.8406 11.7168 14.9156C11.6418 14.9906 11.5997 15.0924 11.5997 15.1984V15.6512L11.0217 15.2656C10.9334 15.2068 10.8254 15.1854 10.7213 15.2061C10.6173 15.2269 10.5258 15.2882 10.4669 15.3764C10.408 15.4647 10.3866 15.5727 10.4074 15.6768C10.4282 15.7808 10.4894 15.8724 10.5777 15.9312L11.2797 16.3984L10.5789 16.8656C10.5351 16.8947 10.4974 16.9321 10.4681 16.9757C10.4387 17.0193 10.4183 17.0683 10.4079 17.1198C10.3975 17.1714 10.3973 17.2244 10.4075 17.276C10.4176 17.3276 10.4378 17.3767 10.4669 17.4204ZM6.39968 10.3984H5.19968C5.09359 10.3984 4.99185 10.4406 4.91684 10.5156C4.84182 10.5906 4.79968 10.6924 4.79968 10.7984V11.9984C4.79968 12.1045 4.84182 12.2063 4.91684 12.2813C4.99185 12.3563 5.09359 12.3984 5.19968 12.3984C5.30577 12.3984 5.40751 12.3563 5.48252 12.2813C5.55754 12.2063 5.59968 12.1045 5.59968 11.9984V11.1984H6.39968C6.50577 11.1984 6.60751 11.1563 6.68252 11.0813C6.75754 11.0063 6.79968 10.9045 6.79968 10.7984C6.79968 10.6924 6.75754 10.5906 6.68252 10.5156C6.60751 10.4406 6.50577 10.3984 6.39968 10.3984ZM19.5997 17.9984H21.9997C22.1058 17.9984 22.2075 17.9563 22.2825 17.8813C22.3575 17.8063 22.3997 17.7045 22.3997 17.5984C22.3997 17.4924 22.3575 17.3906 22.2825 17.3156C22.2075 17.2406 22.1058 17.1984 21.9997 17.1984H19.5997C19.4936 17.1984 19.3919 17.2406 19.3168 17.3156C19.2418 17.3906 19.1997 17.4924 19.1997 17.5984C19.1997 17.7045 19.2418 17.8063 19.3168 17.8813C19.3919 17.9563 19.4936 17.9984 19.5997 17.9984Z" fill="black"/>
</g>
<defs>
<clipPath id="clip0_2008_1008">
<rect width="24" height="24" fill="white"/>
</clipPath>
</defs>
</svg>
