<svg width="33" height="32" viewBox="0 0 33 32" fill="none" xmlns="http://www.w3.org/2000/svg">
<path d="M16.5 0C25.3366 0 32.5 7.16344 32.5 16C32.5 24.8366 25.3366 32 16.5 32H16C7.16344 32 0 24.8366 0 16C0 7.16344 7.16344 0 16 0H16.5Z" fill="#E5E7EB"/>
<path d="M16.5 0C25.3366 0 32.5 7.16344 32.5 16C32.5 24.8366 25.3366 32 16.5 32H16C7.16344 32 0 24.8366 0 16C0 7.16344 7.16344 0 16 0H16.5Z" stroke="#E5E7EB"/>
<g clip-path="url(#clip0_794_2746)">
<path d="M21.2797 12.4702C21.5726 12.7632 21.5726 13.239 21.2797 13.5319L15.2797 19.5319C14.9867 19.8249 14.5109 19.8249 14.218 19.5319L11.218 16.5319C10.925 16.239 10.925 15.7632 11.218 15.4702C11.5109 15.1772 11.9867 15.1772 12.2797 15.4702L14.75 17.9382L20.2203 12.4702C20.5133 12.1772 20.9891 12.1772 21.282 12.4702H21.2797Z" fill="white"/>
</g>
<defs>
<clipPath id="clip0_794_2746">
<rect width="10.5" height="12" fill="white" transform="translate(11 10)"/>
</clipPath>
</defs>
</svg>
