<svg width="44" height="44" viewBox="0 0 44 44" fill="none" xmlns="http://www.w3.org/2000/svg">
<path d="M32 0C38.6274 0 44 5.37258 44 12V32C44 38.6274 38.6274 44 32 44H12C5.37258 44 0 38.6274 0 32V12C0 5.37258 5.37258 0 12 0H32Z" fill="#DBEAFE"/>
<path d="M32 0C38.6274 0 44 5.37258 44 12V32C44 38.6274 38.6274 44 32 44H12C5.37258 44 0 38.6274 0 32V12C0 5.37258 5.37258 0 12 0H32Z" stroke="#E5E7EB"/>
<g clip-path="url(#clip0_25_547)">
<path d="M16.6667 14C15.1958 14 14 14.8969 14 16V28C14 29.1031 15.1958 30 16.6667 30H27.3333C28.8042 30 30 29.1031 30 28V19H24.6667C23.9292 19 23.3333 18.5531 23.3333 18V14H16.6667ZM24.6667 14V18H30L24.6667 14ZM18.6667 22H25.3333C25.7 22 26 22.225 26 22.5C26 22.775 25.7 23 25.3333 23H18.6667C18.3 23 18 22.775 18 22.5C18 22.225 18.3 22 18.6667 22ZM18.6667 24H25.3333C25.7 24 26 24.225 26 24.5C26 24.775 25.7 25 25.3333 25H18.6667C18.3 25 18 24.775 18 24.5C18 24.225 18.3 24 18.6667 24ZM18.6667 26H25.3333C25.7 26 26 26.225 26 26.5C26 26.775 25.7 27 25.3333 27H18.6667C18.3 27 18 26.775 18 26.5C18 26.225 18.3 26 18.6667 26Z" fill="#2563EB"/>
</g>
<defs>
<clipPath id="clip0_25_547">
<path d="M14 14H30V30H14V14Z" fill="white"/>
</clipPath>
</defs>
</svg>
