<svg width="40" height="38" viewBox="0 0 40 38" fill="none" xmlns="http://www.w3.org/2000/svg">
<path d="M0 8C0 3.58172 3.58172 0 8 0H32C36.4183 0 40 3.58172 40 8V30C40 34.4183 36.4183 38 32 38H8C3.58172 38 0 34.4183 0 30V8Z" fill="#EFF6FF"/>
<g clip-path="url(#clip0_89_2121)">
<path d="M10 10.8438C10 10.3762 10.3762 10 10.8438 10H12.4434C13.2168 10 13.9023 10.45 14.2223 11.125H28.6715C29.5961 11.125 30.2711 12.0039 30.0285 12.8969L28.5871 18.2512C28.2883 19.3551 27.2863 20.125 26.1438 20.125H16.0012L16.191 21.127C16.2684 21.5242 16.6164 21.8125 17.0207 21.8125H27.1562C27.6238 21.8125 28 22.1887 28 22.6562C28 23.1238 27.6238 23.5 27.1562 23.5H17.0207C15.8043 23.5 14.7602 22.6352 14.5352 21.4434L12.7211 11.916C12.6965 11.7824 12.5805 11.6875 12.4434 11.6875H10.8438C10.3762 11.6875 10 11.3113 10 10.8438ZM14.5 26.3125C14.5 26.0909 14.5436 25.8715 14.6285 25.6667C14.7133 25.462 14.8376 25.276 14.9943 25.1193C15.151 24.9626 15.337 24.8383 15.5417 24.7535C15.7465 24.6686 15.9659 24.625 16.1875 24.625C16.4091 24.625 16.6285 24.6686 16.8333 24.7535C17.038 24.8383 17.224 24.9626 17.3807 25.1193C17.5374 25.276 17.6617 25.462 17.7465 25.6667C17.8314 25.8715 17.875 26.0909 17.875 26.3125C17.875 26.5341 17.8314 26.7535 17.7465 26.9583C17.6617 27.163 17.5374 27.349 17.3807 27.5057C17.224 27.6624 17.038 27.7867 16.8333 27.8715C16.6285 27.9564 16.4091 28 16.1875 28C15.9659 28 15.7465 27.9564 15.5417 27.8715C15.337 27.7867 15.151 27.6624 14.9943 27.5057C14.8376 27.349 14.7133 27.163 14.6285 26.9583C14.5436 26.7535 14.5 26.5341 14.5 26.3125ZM26.3125 24.625C26.7601 24.625 27.1893 24.8028 27.5057 25.1193C27.8222 25.4357 28 25.8649 28 26.3125C28 26.7601 27.8222 27.1893 27.5057 27.5057C27.1893 27.8222 26.7601 28 26.3125 28C25.8649 28 25.4357 27.8222 25.1193 27.5057C24.8028 27.1893 24.625 26.7601 24.625 26.3125C24.625 25.8649 24.8028 25.4357 25.1193 25.1193C25.4357 24.8028 25.8649 24.625 26.3125 24.625Z" fill="#2563EB"/>
</g>
<defs>
<clipPath id="clip0_89_2121">
<path d="M10 10H30.25V28H10V10Z" fill="white"/>
</clipPath>
</defs>
</svg>
