<svg width="32" height="32" viewBox="0 0 32 32" fill="none" xmlns="http://www.w3.org/2000/svg">
<path d="M24 0C28.4183 0 32 3.58172 32 8V24C32 28.4183 28.4183 32 24 32H8C3.58172 32 0 28.4183 0 24V8C0 3.58172 3.58172 0 8 0H24Z" fill="#E5E7EB"/>
<path d="M24 0C28.4183 0 32 3.58172 32 8V24C32 28.4183 28.4183 32 24 32H8C3.58172 32 0 28.4183 0 24V8C0 3.58172 3.58172 0 8 0H24Z" stroke="#E5E7EB"/>
<g clip-path="url(#clip0_794_2824)">
<path d="M18.9176 9.52783L17.5941 10.8513L21.1488 14.406L22.4723 13.0825C23.1559 12.3989 23.1559 11.2915 22.4723 10.6079L21.3949 9.52783C20.7113 8.84424 19.6039 8.84424 18.9203 9.52783H18.9176ZM16.9762 11.4692L10.6023 17.8458C10.318 18.1302 10.1101 18.4829 9.99531 18.8685L9.02734 22.1579C8.95898 22.3903 9.02187 22.6392 9.1914 22.8087C9.36093 22.9782 9.60976 23.0411 9.83945 22.9755L13.1289 22.0075C13.5144 21.8927 13.8672 21.6849 14.1516 21.4005L20.5309 15.0239L16.9762 11.4692Z" fill="#4B5563"/>
</g>
<defs>
<clipPath id="clip0_794_2824">
<rect width="14" height="14" fill="white" transform="translate(9 9)"/>
</clipPath>
</defs>
</svg>
