<svg width="24" height="24" viewBox="0 0 24 24" fill="none" xmlns="http://www.w3.org/2000/svg">
<path d="M20 7.5H4C2.89543 7.5 2 8.39543 2 9.5V11.5C2 12.6046 2.89543 13.5 4 13.5H20C21.1046 13.5 22 12.6046 22 11.5V9.5C22 8.39543 21.1046 7.5 20 7.5Z" fill="black"/>
<path d="M11 14.5V22H6C5.33696 22 4.70107 21.7366 4.23223 21.2678C3.76339 20.7989 3.5 20.163 3.5 19.5V14.45C3.66402 14.4869 3.83192 14.5037 4 14.5H11ZM20.5 14.45V19.5C20.5 19.8283 20.4353 20.1534 20.3097 20.4567C20.1841 20.76 19.9999 21.0356 19.7678 21.2678C19.5356 21.4999 19.26 21.6841 18.9567 21.8097C18.6534 21.9353 18.3283 22 18 22H13V14.5H20C20.1681 14.5037 20.336 14.4869 20.5 14.45ZM12 9C11.85 9.00304 11.7013 8.97229 11.5648 8.91004C11.4283 8.84779 11.3076 8.75563 11.2115 8.64039C11.1155 8.52515 11.0466 8.38977 11.01 8.2443C10.9734 8.09882 10.97 7.94698 11 7.8L11.44 5.58C11.6474 4.56889 12.1975 3.6604 12.9974 3.0081C13.7973 2.35579 14.7979 1.99969 15.83 2C16.6187 2.00981 17.3753 2.31328 17.9522 2.85112C18.5291 3.38896 18.8848 4.12254 18.9498 4.90858C19.0148 5.69462 18.7844 6.47665 18.3037 7.10193C17.8229 7.7272 17.1263 8.15081 16.35 8.29L12.16 9H12ZM15.83 4C15.259 4.00344 14.7069 4.20459 14.2675 4.56922C13.8281 4.93385 13.5286 5.43945 13.42 6L13.26 6.8L16 6.32C16.2836 6.26789 16.538 6.11288 16.7143 5.88473C16.8906 5.65657 16.9765 5.37134 16.9554 5.08376C16.9344 4.79618 16.8078 4.52651 16.6001 4.3265C16.3924 4.12649 16.1182 4.01022 15.83 4Z" fill="black"/>
<path d="M12 9.00005H11.84L7.65 8.30005C6.86131 8.17365 6.1494 7.75416 5.65667 7.12548C5.16394 6.4968 4.9267 5.70529 4.99241 4.90924C5.05811 4.11318 5.42192 3.37128 6.01106 2.8319C6.6002 2.29252 7.37125 1.99543 8.17 2.00005C9.19871 2.00434 10.1946 2.36253 10.9904 3.01445C11.7862 3.66637 12.3333 4.5723 12.54 5.58005L13 7.80005C13.03 7.94703 13.0266 8.09888 12.99 8.24435C12.9534 8.38983 12.8845 8.5252 12.7885 8.64044C12.6924 8.75569 12.5717 8.84784 12.4352 8.91009C12.2987 8.97234 12.15 9.00309 12 9.00005ZM8.17 4.00005C7.88183 4.01027 7.60758 4.12654 7.39988 4.32655C7.19218 4.52657 7.06565 4.79624 7.04458 5.08382C7.0235 5.3714 7.10937 5.65663 7.2857 5.88478C7.46203 6.11294 7.7164 6.26794 8 6.32005L10.77 6.78005L10.58 6.00005C10.4714 5.43951 10.1719 4.93391 9.73249 4.56927C9.29311 4.20464 8.74097 4.00349 8.17 4.00005Z" fill="black"/>
</svg>
