<svg width="22" height="21" viewBox="0 0 22 21" fill="none" xmlns="http://www.w3.org/2000/svg">
<path d="M19.9389 2.89357C18.59 1.25607 16.7129 0.354004 14.6525 0.354004C13.465 0.354004 12.316 0.632154 11.29 1.16132C10.265 0.632154 9.11496 0.354004 7.92746 0.354004C5.86704 0.354004 3.98995 1.25607 2.64099 2.89357C1.17953 4.66753 0.573297 7.08938 1.01809 9.37271C2.05351 14.68 7.42643 18.3685 9.68893 19.7081C10.1827 19.9987 10.7358 20.1457 11.2889 20.1457C11.842 20.1457 12.3962 19.9988 12.89 19.7071C15.1525 18.3686 20.5254 14.68 21.5608 9.37271C22.0066 7.08938 21.4004 4.66753 19.9389 2.89357Z" fill="black"/>
</svg>
