<svg width="24" height="24" viewBox="0 0 24 24" fill="none" xmlns="http://www.w3.org/2000/svg">
<g clip-path="url(#clip0_180_1193)">
<path d="M21.6724 12.0001C21.6724 11.0183 22.436 10.1092 23.6724 9.49104C23.3815 8.07286 22.7996 6.72741 22.036 5.52741C20.7269 5.92741 19.5633 5.85468 18.8724 5.16377C18.1815 4.47286 18.0724 3.30922 18.5087 2.00013C17.2724 1.2365 15.9269 0.654679 14.5087 0.36377C13.8906 1.56377 12.9815 2.32741 11.9996 2.32741C11.0178 2.32741 10.1087 1.56377 9.49055 0.36377C8.07237 0.654679 6.72692 1.2365 5.52692 2.00013C5.92692 3.30922 5.85419 4.47286 5.16328 5.16377C4.47237 5.85468 3.30874 5.96377 1.99964 5.52741C1.23601 6.72741 0.65419 8.07286 0.363281 9.49104C1.56328 10.1092 2.32692 11.0183 2.32692 12.0001C2.32692 12.982 1.56328 13.891 0.363281 14.5092C0.65419 15.9274 1.23601 17.2729 1.99964 18.4729C3.30874 18.0729 4.47237 18.1456 5.16328 18.8365C5.85419 19.5274 5.96328 20.691 5.52692 22.0001C6.72692 22.7638 8.03601 23.3456 9.49055 23.6365C10.1087 22.4365 11.0178 21.6729 11.9996 21.6729C12.9815 21.6729 13.8906 22.4365 14.5087 23.6365C15.9269 23.3456 17.2724 22.7638 18.4724 22.0001C18.0724 20.691 18.1451 19.5274 18.836 18.8365C19.5269 18.1456 20.6906 18.0365 21.9996 18.4729C22.7633 17.2729 23.3451 15.9638 23.636 14.5092C22.436 13.891 21.6724 12.982 21.6724 12.0001ZM11.9996 19.382C7.92692 19.382 4.61783 16.0729 4.61783 12.0001C4.61783 7.92741 7.92692 4.61832 11.9996 4.61832C16.0724 4.61832 19.3815 7.92741 19.3815 12.0001C19.3815 16.0729 16.0724 19.382 11.9996 19.382Z" fill="black"/>
<path d="M11.9992 6.58203C9.01742 6.58203 6.58105 9.01839 6.58105 12.0002C6.58105 14.982 9.01742 17.4184 11.9992 17.4184C14.9811 17.4184 17.4174 14.982 17.4174 12.0002C17.4174 9.01839 14.9811 6.58203 11.9992 6.58203ZM11.5992 11.2366C11.7083 11.3457 11.9265 11.4548 12.2174 11.5638C12.5083 11.6729 12.7629 11.782 12.9447 11.8911C13.1265 12.0002 13.3083 12.1093 13.4174 12.2548C13.5629 12.4002 13.6356 12.5457 13.7083 12.7275C13.7811 12.9093 13.8174 13.0911 13.8174 13.3093C13.8174 13.7457 13.672 14.0729 13.4174 14.3275C13.1629 14.582 12.7992 14.7275 12.3265 14.8002V15.5275H11.7447V14.8002C11.2356 14.7638 10.8356 14.582 10.5811 14.2548C10.3265 13.9275 10.1447 13.5275 10.1447 13.0548H11.2356C11.2356 13.3457 11.3083 13.5638 11.4538 13.7457C11.5992 13.8911 11.7811 13.9638 12.072 13.9638C12.2901 13.9638 12.472 13.8911 12.5811 13.782C12.7265 13.6729 12.7629 13.5275 12.7629 13.3093C12.7629 13.0911 12.6901 12.9457 12.5811 12.8366C12.472 12.7275 12.2901 12.6184 11.9992 12.5093C11.7447 12.4002 11.4901 12.3275 11.3083 12.2184C11.1265 12.1093 10.9447 12.0002 10.7992 11.8548C10.6538 11.7457 10.5447 11.5638 10.472 11.382C10.3992 11.2002 10.3629 10.982 10.3629 10.7638C10.3629 10.3638 10.5083 10.0002 10.7629 9.74567C11.0174 9.49112 11.3811 9.3093 11.8174 9.27294V8.47294H12.3992V9.27294C12.8356 9.34567 13.1629 9.52749 13.4174 9.81839C13.672 10.1093 13.7811 10.5093 13.7811 10.982H12.6901C12.6901 10.6911 12.6174 10.4729 12.5083 10.3275C12.3992 10.182 12.2174 10.1093 12.0356 10.1093C11.8174 10.1093 11.672 10.182 11.5629 10.2911C11.4538 10.4002 11.3811 10.582 11.3811 10.7638C11.4538 10.9457 11.4901 11.0911 11.5992 11.2366Z" fill="black"/>
</g>
<defs>
<clipPath id="clip0_180_1193">
<rect width="24" height="24" fill="white"/>
</clipPath>
</defs>
</svg>
