<svg width="14" height="11" viewBox="0 0 14 11" fill="none" xmlns="http://www.w3.org/2000/svg">
<path d="M7.24219 1.73438C7.50938 1.57031 7.6875 1.27266 7.6875 0.9375C7.6875 0.419531 7.26797 0 6.75 0C6.23203 0 5.8125 0.419531 5.8125 0.9375C5.8125 1.275 5.99062 1.57031 6.25781 1.73438L4.91484 4.42031C4.70156 4.84688 4.14844 4.96875 3.77578 4.67109L1.6875 3C1.80469 2.84297 1.875 2.64844 1.875 2.4375C1.875 1.91953 1.45547 1.5 0.9375 1.5C0.419531 1.5 0 1.91953 0 2.4375C0 2.95547 0.419531 3.375 0.9375 3.375C0.942187 3.375 0.949219 3.375 0.953906 3.375L2.025 9.26719C2.15391 9.97969 2.775 10.5 3.50156 10.5H9.99844C10.7227 10.5 11.3438 9.98203 11.475 9.26719L12.5461 3.375C12.5508 3.375 12.5578 3.375 12.5625 3.375C13.0805 3.375 13.5 2.95547 13.5 2.4375C13.5 1.91953 13.0805 1.5 12.5625 1.5C12.0445 1.5 11.625 1.91953 11.625 2.4375C11.625 2.64844 11.6953 2.84297 11.8125 3L9.72422 4.67109C9.35156 4.96875 8.79844 4.84688 8.58516 4.42031L7.24219 1.73438Z" fill="white"/>
</svg>
