<svg width="24" height="24" viewBox="0 0 24 24" fill="none" xmlns="http://www.w3.org/2000/svg">
<path d="M12 1C18.0751 1 23 5.92487 23 12C23 18.0751 18.0751 23 12 23C5.92487 23 1 18.0751 1 12C1 5.92487 5.92487 1 12 1Z" fill="url(#paint0_linear_1069_3725)"/>
<path d="M12 1C18.0751 1 23 5.92487 23 12C23 18.0751 18.0751 23 12 23C5.92487 23 1 18.0751 1 12C1 5.92487 5.92487 1 12 1Z" stroke="white" stroke-width="2"/>
<path d="M12.3646 9.32143C12.5625 9.19643 12.6944 8.96964 12.6944 8.71429C12.6944 8.31964 12.3837 8 12 8C11.6163 8 11.3056 8.31964 11.3056 8.71429C11.3056 8.97143 11.4375 9.19643 11.6354 9.32143L10.6406 11.3679C10.4826 11.6929 10.0729 11.7857 9.79688 11.5589L8.25 10.2857C8.33681 10.1661 8.38889 10.0179 8.38889 9.85714C8.38889 9.4625 8.07812 9.14286 7.69444 9.14286C7.31076 9.14286 7 9.4625 7 9.85714C7 10.2518 7.31076 10.5714 7.69444 10.5714C7.69792 10.5714 7.70313 10.5714 7.7066 10.5714L8.5 15.0607C8.59549 15.6036 9.05556 16 9.59375 16H14.4063C14.9427 16 15.4028 15.6054 15.5 15.0607L16.2934 10.5714C16.2969 10.5714 16.3021 10.5714 16.3056 10.5714C16.6892 10.5714 17 10.2518 17 9.85714C17 9.4625 16.6892 9.14286 16.3056 9.14286C15.9219 9.14286 15.6111 9.4625 15.6111 9.85714C15.6111 10.0179 15.6632 10.1661 15.75 10.2857L14.2031 11.5589C13.9271 11.7857 13.5174 11.6929 13.3594 11.3679L12.3646 9.32143Z" fill="white"/>
<defs>
<linearGradient id="paint0_linear_1069_3725" x1="0" y1="12" x2="24" y2="12" gradientUnits="userSpaceOnUse">
<stop stop-color="#FACC15"/>
<stop offset="0.5" stop-color="#EAB308"/>
<stop offset="1" stop-color="#CA8A04"/>
</linearGradient>
</defs>
</svg>
