<svg width="12" height="12" viewBox="0 0 12 12" fill="none" xmlns="http://www.w3.org/2000/svg">
<path d="M8.25 0C7.94766 0 7.67344 0.182812 7.55625 0.464062C7.43906 0.745312 7.50469 1.06641 7.71797 1.28203L8.68828 2.25L4.72031 6.22031C4.42734 6.51328 4.42734 6.98906 4.72031 7.28203C5.01328 7.575 5.48906 7.575 5.78203 7.28203L9.75 3.31172L10.7203 4.28203C10.9359 4.49766 11.257 4.56094 11.5383 4.44375C11.8195 4.32656 12.0023 4.05469 12.0023 3.75V0.75C12.0023 0.335156 11.6672 0 11.2523 0H8.25ZM1.875 0.75C0.839062 0.75 0 1.58906 0 2.625V10.125C0 11.1609 0.839062 12 1.875 12H9.375C10.4109 12 11.25 11.1609 11.25 10.125V7.5C11.25 7.08516 10.9148 6.75 10.5 6.75C10.0852 6.75 9.75 7.08516 9.75 7.5V10.125C9.75 10.3313 9.58125 10.5 9.375 10.5H1.875C1.66875 10.5 1.5 10.3313 1.5 10.125V2.625C1.5 2.41875 1.66875 2.25 1.875 2.25H4.5C4.91484 2.25 5.25 1.91484 5.25 1.5C5.25 1.08516 4.91484 0.75 4.5 0.75H1.875Z" fill="#374151"/>
</svg>
