<svg width="24" height="24" viewBox="0 0 24 24" fill="none" xmlns="http://www.w3.org/2000/svg">
<g clip-path="url(#clip0_4172_415)">
<path d="M6.13926 23.8H17.8609C19.2925 23.7983 20.665 23.2288 21.6774 22.2165C22.6897 21.2041 23.2592 19.8316 23.2609 18.4V5.59995C23.2592 4.1683 22.6897 2.79578 21.6774 1.78345C20.665 0.771116 19.2925 0.201645 17.8609 0.199951H6.13926C4.70761 0.201645 3.33508 0.771116 2.32275 1.78345C1.31042 2.79578 0.740952 4.1683 0.739258 5.59995V18.4C0.740952 19.8316 1.31042 21.2041 2.32275 22.2165C3.33508 23.2288 4.70761 23.7983 6.13926 23.8ZM1.93926 5.59995C1.94053 4.48643 2.38344 3.41888 3.17081 2.63151C3.95819 1.84413 5.02574 1.40122 6.13926 1.39995H17.8609C18.9744 1.40122 20.0419 1.84413 20.8293 2.63151C21.6167 3.41888 22.0596 4.48643 22.0609 5.59995V18.4C22.0596 19.5135 21.6167 20.581 20.8293 21.3684C20.0419 22.1558 18.9744 22.5987 17.8609 22.6H6.13926C5.02574 22.5987 3.95819 22.1558 3.17081 21.3684C2.38344 20.581 1.94053 19.5135 1.93926 18.4V5.59995Z" fill="#9CA3AF"/>
<path d="M5.02285 7.14238H18.4005C18.5596 7.14238 18.7122 7.07917 18.8247 6.96665C18.9372 6.85413 19.0005 6.70151 19.0005 6.54238C19.0005 6.38325 18.9372 6.23064 18.8247 6.11812C18.7122 6.0056 18.5596 5.94238 18.4005 5.94238H5.02285C4.86372 5.94238 4.71111 6.0056 4.59859 6.11812C4.48607 6.23064 4.42285 6.38325 4.42285 6.54238C4.42285 6.70151 4.48607 6.85413 4.59859 6.96665C4.71111 7.07917 4.86372 7.14238 5.02285 7.14238ZM5.02285 11.8696H8.31325C8.47238 11.8696 8.62499 11.8064 8.73752 11.6938C8.85004 11.5813 8.91325 11.4287 8.91325 11.2696C8.91325 11.1105 8.85004 10.9578 8.73752 10.8453C8.62499 10.7328 8.47238 10.6696 8.31325 10.6696H5.02285C4.86372 10.6696 4.71111 10.7328 4.59859 10.8453C4.48607 10.9578 4.42285 11.1105 4.42285 11.2696C4.42285 11.4287 4.48607 11.5813 4.59859 11.6938C4.71111 11.8064 4.86372 11.8696 5.02285 11.8696ZM5.02285 16.5968H8.31325C8.47238 16.5968 8.62499 16.5336 8.73752 16.421C8.85004 16.3085 8.91325 16.1559 8.91325 15.9968C8.91325 15.8377 8.85004 15.685 8.73752 15.5725C8.62499 15.46 8.47238 15.3968 8.31325 15.3968H5.02285C4.86372 15.3968 4.71111 15.46 4.59859 15.5725C4.48607 15.685 4.42285 15.8377 4.42285 15.9968C4.42285 16.1559 4.48607 16.3085 4.59859 16.421C4.71111 16.5336 4.86372 16.5968 5.02285 16.5968ZM18.7205 10.6224C18.7205 10.4633 18.6572 10.3106 18.5447 10.1981C18.4322 10.0856 18.2796 10.0224 18.1205 10.0224C17.9613 10.0224 17.8087 10.0856 17.6962 10.1981C17.5837 10.3106 17.5205 10.4633 17.5205 10.6224V11.2952L16.3205 10.0952C15.9079 9.68497 15.3498 9.4547 14.7681 9.4547C14.1863 9.4547 13.6282 9.68497 13.2157 10.0952L10.9933 12.3088L10.1309 13.168C10.0247 13.2662 9.95804 13.3997 9.94328 13.5436C9.92852 13.6874 9.9667 13.8317 10.0507 13.9494C10.1346 14.0671 10.2586 14.1502 10.3995 14.1831C10.5403 14.216 10.6882 14.1964 10.8157 14.128V15.86C10.8163 16.4433 11.0483 17.0025 11.4607 17.4149C11.8732 17.8274 12.4324 18.0593 13.0157 18.06H16.5181C17.1009 18.0594 17.6598 17.8277 18.0721 17.4158C18.4845 17.0038 18.7168 16.4452 18.7181 15.8624V14.1296C18.798 14.1709 18.8864 14.1934 18.9765 14.1952C19.0951 14.1951 19.2111 14.1598 19.3098 14.0937C19.4084 14.0277 19.4852 13.9339 19.5305 13.8242C19.5758 13.7145 19.5875 13.5938 19.5643 13.4774C19.541 13.3611 19.4837 13.2542 19.3997 13.1704L18.7197 12.4928L18.7205 10.6224ZM14.3605 16.8576V15.04C14.3605 15.0156 14.3701 14.9922 14.3874 14.9749C14.4047 14.9577 14.4281 14.948 14.4525 14.948H15.0773C15.0893 14.948 15.1012 14.9504 15.1123 14.955C15.1235 14.9596 15.1335 14.9664 15.142 14.975C15.1505 14.9835 15.1572 14.9937 15.1617 15.0048C15.1663 15.016 15.1686 15.0279 15.1685 15.04V16.8552L14.3605 16.8576ZM17.5205 15.8592C17.5198 16.1241 17.4142 16.3779 17.2268 16.565C17.0393 16.7522 16.7853 16.8574 16.5205 16.8576H16.3725V15.04C16.372 14.6976 16.2359 14.3693 15.9938 14.1272C15.7518 13.885 15.4236 13.7486 15.0813 13.748H14.4565C14.1135 13.7478 13.7845 13.8837 13.5418 14.126C13.2991 14.3683 13.1625 14.697 13.1621 15.04V16.8552H13.0157C12.7504 16.8552 12.4961 16.7498 12.3085 16.5623C12.121 16.3748 12.0157 16.1204 12.0157 15.8552V12.9832L14.0605 10.9456C14.248 10.7589 14.5018 10.6541 14.7665 10.6541C15.0311 10.6541 15.2849 10.7589 15.4725 10.9456L17.5205 12.988V15.8592Z" fill="#9CA3AF"/>
</g>
<defs>
<clipPath id="clip0_4172_415">
<rect width="24" height="24" fill="white"/>
</clipPath>
</defs>
</svg>
