<svg width="79" height="79" viewBox="0 0 79 79" fill="none" xmlns="http://www.w3.org/2000/svg">
<path d="M0 39.2C0 17.5504 17.5508 0 39.2004 0C60.8499 0 78.4008 17.5504 78.4008 39.2C78.4008 60.8496 60.8499 78.4 39.2004 78.4C17.5508 78.4 0 60.8496 0 39.2Z" fill="white" fill-opacity="0.2"/>
<path d="M39.2002 0.5C60.5736 0.5 77.9004 17.8268 77.9004 39.2002C77.9003 60.5735 60.5736 77.9004 39.2002 77.9004C17.8269 77.9003 0.500105 60.5735 0.5 39.2002C0.5 17.8268 17.8269 0.500099 39.2002 0.5Z" stroke="white" stroke-opacity="0.3"/>
<g clip-path="url(#clip0_7_18)">
<path d="M21 25.3746C21 24.6128 21.6128 24 22.3746 24H56.2814C57.0431 24 57.656 24.6128 57.656 25.3746C57.656 26.1364 57.0431 26.7492 56.2814 26.7492H22.3746C21.6128 26.7492 21 26.1364 21 25.3746ZM21 51.9502C21 51.1884 21.6128 50.5756 22.3746 50.5756H56.2814C57.0431 50.5756 57.656 51.1884 57.656 51.9502C57.656 52.7119 57.0431 53.3248 56.2814 53.3248H22.3746C21.6128 53.3248 21 52.7119 21 51.9502ZM25.7653 33.164C25.7653 32.6826 25.8601 32.206 26.0443 31.7612C26.2285 31.3165 26.4985 30.9124 26.8389 30.572C27.1793 30.2316 27.5834 29.9616 28.0281 29.7774C28.4728 29.5932 28.9495 29.4984 29.4309 29.4984C29.9122 29.4984 30.3889 29.5932 30.8336 29.7774C31.2784 29.9616 31.6825 30.2316 32.0228 30.572C32.3632 30.9124 32.6332 31.3165 32.8174 31.7612C33.0017 32.206 33.0965 32.6826 33.0965 33.164C33.0965 34.1362 32.7103 35.0685 32.0228 35.756C31.3354 36.4434 30.403 36.8296 29.4309 36.8296C28.4587 36.8296 27.5263 36.4434 26.8389 35.756C26.1515 35.0685 25.7653 34.1362 25.7653 33.164ZM22.8328 42.328C22.8328 40.3062 24.4766 38.6624 26.4984 38.6624H31.9968C32.6955 38.6624 33.3542 38.8571 33.9098 39.2008C31.7791 40.0656 30.1525 41.9041 29.5683 44.1608H24.6656C23.6518 44.1608 22.8328 43.3417 22.8328 42.328ZM49.2709 44.1608C48.681 41.8641 47.0028 40.0026 44.8206 39.1549C45.359 38.8399 45.9891 38.6624 46.6592 38.6624H52.1576C54.1794 38.6624 55.8232 40.3062 55.8232 42.328C55.8232 43.3417 55.0041 44.1608 53.9904 44.1608H49.2709ZM43.406 40.6326C45.2445 41.0565 46.7336 42.4024 47.3522 44.1608C47.5527 44.7335 47.6672 45.3521 47.6672 45.9936C47.6672 47.0073 46.8482 47.8264 45.8344 47.8264H33.0048C31.9911 47.8264 31.172 47.0073 31.172 45.9936C31.172 45.3521 31.2809 44.7335 31.487 44.1608C32.0884 42.4597 33.5088 41.1367 35.2729 40.6727C35.7197 40.5525 36.1893 40.4952 36.6762 40.4952H42.1745C42.5984 40.4952 43.0165 40.541 43.4117 40.6326H43.406ZM45.9261 33.164C45.9261 32.1918 46.3122 31.2595 46.9997 30.572C47.6871 29.8846 48.6195 29.4984 49.5917 29.4984C50.5638 29.4984 51.4962 29.8846 52.1836 30.572C52.871 31.2595 53.2572 32.1918 53.2572 33.164C53.2572 34.1362 52.871 35.0685 52.1836 35.756C51.4962 36.4434 50.5638 36.8296 49.5917 36.8296C48.6195 36.8296 47.6871 36.4434 46.9997 35.756C46.3122 35.0685 45.9261 34.1362 45.9261 33.164ZM39.4196 29.4984C40.6348 29.4984 41.8003 29.9811 42.6596 30.8404C43.5189 31.6997 44.0016 32.8652 44.0016 34.0804C44.0016 35.2956 43.5189 36.4611 42.6596 37.3203C41.8003 38.1796 40.6348 38.6624 39.4196 38.6624C38.2044 38.6624 37.039 38.1796 36.1797 37.3203C35.3204 36.4611 34.8376 35.2956 34.8376 34.0804C34.8376 32.8652 35.3204 31.6997 36.1797 30.8404C37.039 29.9811 38.2044 29.4984 39.4196 29.4984Z" fill="white"/>
</g>
<defs>
<clipPath id="clip0_7_18">
<rect width="36.656" height="29.3248" fill="white" transform="translate(21 24)"/>
</clipPath>
</defs>
</svg>
