<svg width="24" height="24" viewBox="0 0 24 24" fill="none" xmlns="http://www.w3.org/2000/svg">
<g clip-path="url(#clip0_121_798)">
<path fill-rule="evenodd" clip-rule="evenodd" d="M11.8278 20.1776V21.3736C11.8278 22.3328 11.3497 23.1608 10.5191 23.6404C10.1194 23.8711 9.67335 23.9998 9.21088 24C8.74799 24.0003 8.30207 23.8713 7.90213 23.6404L2.58388 20.5699C1.75311 20.0903 1.27518 19.2624 1.27518 18.3031V2.61741C1.27518 1.17408 2.4493 0 3.89258 0H15.6053C17.0487 0 18.2229 1.17398 18.2229 2.61741V5.92392C18.2229 6.39825 17.8378 6.78338 17.3634 6.78338C16.889 6.78338 16.5042 6.3983 16.5042 5.92392V2.61741C16.5042 2.1218 16.1009 1.71853 15.6053 1.71853H5.34191L10.5191 4.70808C11.3495 5.18761 11.8278 6.01542 11.8278 6.97434V18.4589H15.6053C16.1008 18.4589 16.5042 18.0558 16.5042 17.5602V14.6616C16.5042 14.187 16.8887 13.8022 17.3634 13.8022C17.8379 13.8022 18.2229 14.187 18.2229 14.6616V17.5602C18.2229 19.0036 17.0487 20.1776 15.6053 20.1776H11.8278ZM19.791 10.948L18.8446 11.8945C18.509 12.2301 18.5091 12.7741 18.8446 13.1097C18.9243 13.1896 19.019 13.2529 19.1233 13.296C19.2276 13.3392 19.3394 13.3613 19.4522 13.3612C19.5651 13.3614 19.6769 13.3393 19.7813 13.2961C19.8856 13.253 19.9804 13.1896 20.0601 13.1097L22.4732 10.6962C22.8087 10.3607 22.8087 9.81694 22.4732 9.48141L20.0601 7.06828C19.7245 6.73266 19.1804 6.7328 18.8446 7.06823C18.5091 7.40348 18.5092 7.94775 18.8446 8.28309L19.791 9.22931H13.4507C12.9759 9.22931 12.5915 9.61406 12.5915 10.0888C12.5915 10.5636 12.976 10.9481 13.4507 10.9481H19.791V10.948Z" fill="black"/>
</g>
<defs>
<clipPath id="clip0_121_798">
<rect width="24" height="24" fill="white"/>
</clipPath>
</defs>
</svg>
