<svg width="22" height="22" viewBox="0 0 22 22" fill="none" xmlns="http://www.w3.org/2000/svg">
<g clip-path="url(#clip0_173_774)">
<path d="M5.19019 16.4315C5.73188 16.0368 6.43315 15.936 7.06304 16.1628C8.17583 16.5659 9.423 16.7969 10.75 16.7969C15.9864 16.7969 19.4843 13.4165 19.4843 10.0781C19.4843 6.73975 15.9864 3.35938 10.75 3.35938C5.51353 3.35938 2.01558 6.73975 2.01558 10.0781C2.01558 11.4219 2.53628 12.7152 3.5147 13.8238C3.87583 14.2312 4.0522 14.7687 4.01021 15.3146C3.95142 16.0746 3.77085 16.7717 3.53569 17.389C4.24956 17.0572 4.84165 16.6877 5.19019 16.4357V16.4315ZM0.890186 18.1364C0.965772 18.023 1.03716 17.9097 1.10435 17.7963C1.52427 17.0992 1.92319 16.1838 2.00298 15.155C0.743213 13.723 -4.8663e-05 11.972 -4.8663e-05 10.0781C-4.8663e-05 5.25322 4.81226 1.34375 10.75 1.34375C16.6876 1.34375 21.5 5.25322 21.5 10.0781C21.5 14.903 16.6876 18.8125 10.75 18.8125C9.19204 18.8125 7.71392 18.5438 6.37856 18.0608C5.87886 18.4262 5.06421 18.9259 4.09839 19.3458C3.46431 19.6229 2.74204 19.8749 1.99458 20.0219C1.96099 20.0303 1.92739 20.0345 1.8938 20.0429C1.70903 20.0765 1.52847 20.1059 1.3395 20.1227C1.3311 20.1227 1.31851 20.1269 1.31011 20.1269C1.09595 20.1479 0.881787 20.1604 0.667627 20.1604C0.394678 20.1604 0.151123 19.9967 0.0461427 19.7447C-0.0588377 19.4928 -4.86718e-05 19.2072 0.188916 19.0141C0.361084 18.8377 0.516455 18.6487 0.663428 18.4472C0.734815 18.3506 0.802002 18.254 0.86499 18.1574C0.86919 18.149 0.873389 18.1448 0.877588 18.1364H0.890186Z" fill="#FDFDFD"/>
</g>
<defs>
<clipPath id="clip0_173_774">
<rect width="21.5" height="21.5" fill="white"/>
</clipPath>
</defs>
</svg>
