<svg width="19" height="22" viewBox="0 0 19 22" fill="none" xmlns="http://www.w3.org/2000/svg">
<path d="M12.7656 5.375C12.7656 4.48404 12.4117 3.62957 11.7817 2.99956C11.1517 2.36956 10.2972 2.01562 9.40625 2.01562C8.51529 2.01562 7.66082 2.36956 7.03081 2.99956C6.40081 3.62957 6.04688 4.48404 6.04688 5.375C6.04688 6.26596 6.40081 7.12043 7.03081 7.75044C7.66082 8.38044 8.51529 8.73438 9.40625 8.73438C10.2972 8.73438 11.1517 8.38044 11.7817 7.75044C12.4117 7.12043 12.7656 6.26596 12.7656 5.375ZM4.03125 5.375C4.03125 3.94946 4.59754 2.58231 5.60555 1.5743C6.61356 0.566293 7.98071 0 9.40625 0C10.8318 0 12.1989 0.566293 13.2069 1.5743C14.215 2.58231 14.7812 3.94946 14.7812 5.375C14.7812 6.80054 14.215 8.16769 13.2069 9.1757C12.1989 10.1837 10.8318 10.75 9.40625 10.75C7.98071 10.75 6.61356 10.1837 5.60555 9.1757C4.59754 8.16769 4.03125 6.80054 4.03125 5.375ZM2.07021 19.4844H16.7423C16.3686 16.8263 14.0842 14.7812 11.3253 14.7812H7.48721C4.72832 14.7812 2.44395 16.8263 2.07021 19.4844ZM0 20.2528C0 16.1166 3.35098 12.7656 7.48721 12.7656H11.3253C15.4615 12.7656 18.8125 16.1166 18.8125 20.2528C18.8125 20.9415 18.254 21.5 17.5653 21.5H1.24717C0.558496 21.5 0 20.9415 0 20.2528Z" fill="#FDFDFD"/>
</svg>
