<svg width="32" height="32" viewBox="0 0 32 32" fill="none" xmlns="http://www.w3.org/2000/svg">
<path d="M16 0C24.8366 0 32 7.16344 32 16C32 24.8366 24.8366 32 16 32C7.16344 32 0 24.8366 0 16C0 7.16344 7.16344 0 16 0Z" fill="#DBEAFE"/>
<path d="M16 0C24.8366 0 32 7.16344 32 16C32 24.8366 24.8366 32 16 32C7.16344 32 0 24.8366 0 16C0 7.16344 7.16344 0 16 0Z" stroke="#E5E7EB"/>
<g clip-path="url(#clip0_95_145)">
<path d="M11.25 13C11.25 12.2044 11.5661 11.4413 12.1287 10.8787C12.6913 10.3161 13.4544 10 14.25 10C15.0456 10 15.8087 10.3161 16.3713 10.8787C16.9339 11.4413 17.25 12.2044 17.25 13C17.25 13.7956 16.9339 14.5587 16.3713 15.1213C15.8087 15.6839 15.0456 16 14.25 16C13.4544 16 12.6913 15.6839 12.1287 15.1213C11.5661 14.5587 11.25 13.7956 11.25 13ZM9 21.3039C9 18.9953 10.8703 17.125 13.1789 17.125H15.3211C17.6297 17.125 19.5 18.9953 19.5 21.3039C19.5 21.6883 19.1883 22 18.8039 22H9.69609C9.31172 22 9 21.6883 9 21.3039ZM20.8125 17.3125V15.8125H19.3125C19.0008 15.8125 18.75 15.5617 18.75 15.25C18.75 14.9383 19.0008 14.6875 19.3125 14.6875H20.8125V13.1875C20.8125 12.8758 21.0633 12.625 21.375 12.625C21.6867 12.625 21.9375 12.8758 21.9375 13.1875V14.6875H23.4375C23.7492 14.6875 24 14.9383 24 15.25C24 15.5617 23.7492 15.8125 23.4375 15.8125H21.9375V17.3125C21.9375 17.6242 21.6867 17.875 21.375 17.875C21.0633 17.875 20.8125 17.6242 20.8125 17.3125Z" fill="#2563EB"/>
</g>
<defs>
<clipPath id="clip0_95_145">
<rect width="15" height="12" fill="white" transform="translate(9 10)"/>
</clipPath>
</defs>
</svg>
