<svg width="32" height="32" viewBox="0 0 32 32" fill="none" xmlns="http://www.w3.org/2000/svg">
<rect x="0.5" y="0.5" width="31" height="31" rx="15.5" stroke="#111111"/>
<path fill-rule="evenodd" clip-rule="evenodd" d="M21.4166 12.2504C21.8586 12.2504 22.2826 12.0748 22.5951 11.7622C22.9077 11.4497 23.0833 11.0257 23.0833 10.5837C23.0833 10.1417 22.9077 9.71772 22.5951 9.40516C22.2826 9.09259 21.8586 8.91699 21.4166 8.91699C20.9746 8.91699 20.5506 9.09259 20.2381 9.40516C19.9255 9.71772 19.7499 10.1417 19.7499 10.5837C19.7499 11.0257 19.9255 11.4497 20.2381 11.7622C20.5506 12.0748 20.9746 12.2504 21.4166 12.2504ZM21.4166 13.5004C23.0274 13.5004 24.3334 12.1944 24.3334 10.5838C24.3334 8.97279 23.0274 7.66699 21.4166 7.66699C19.8058 7.66699 18.5 8.97299 18.5 10.5838C18.5 12.1946 19.806 13.5004 21.4166 13.5004Z" fill="#EF4444"/>
<path fill-rule="evenodd" clip-rule="evenodd" d="M21.8334 15.931V14.311C21.4157 14.3572 20.9933 14.3335 20.5834 14.241V15.931C20.5834 16.751 20.8818 17.446 21.1804 17.9846C21.331 18.2562 21.4964 18.5126 21.6438 18.7378L21.7382 18.8814C21.8528 19.0554 21.9536 19.2086 22.0486 19.364C22.1806 19.5801 22.2503 19.8284 22.25 20.0816C22.2499 20.2148 22.197 20.3424 22.1028 20.4366C22.0087 20.5307 21.881 20.5836 21.7478 20.5836H10.252C10.1188 20.5836 9.99114 20.5307 9.89696 20.4366C9.80279 20.3424 9.74985 20.2148 9.7498 20.0816C9.7498 19.8208 9.8224 19.575 9.9512 19.364C10.0519 19.2014 10.1554 19.0405 10.2616 18.8814L10.356 18.7378C10.5036 18.5128 10.6688 18.2562 10.8194 17.9846C11.118 17.446 11.4164 16.7508 11.4164 15.931V13.5004C11.4164 10.9692 13.4684 8.917 15.9998 8.917C16.6716 8.917 17.3094 9.0616 17.8844 9.321C18.0262 8.92473 18.2339 8.55521 18.4986 8.228C17.7178 7.85751 16.8642 7.66586 16 7.667C12.7784 7.667 10.1666 10.2788 10.1666 13.5004V15.931C10.1666 16.7534 9.689 17.4784 9.2238 18.1848C9.1074 18.3616 8.9918 18.537 8.8846 18.7128C8.63283 19.125 8.49974 19.5986 8.5 20.0816C8.50005 20.5463 8.68468 20.9919 9.01328 21.3205C9.34187 21.649 9.78752 21.8336 10.2522 21.8336H12.875C12.875 23.5596 14.2742 24.9588 16 24.9588C17.726 24.9588 19.125 23.5596 19.125 21.8338H21.7478C22.2125 21.8338 22.6582 21.6492 22.9868 21.3206C23.3154 20.992 23.5 20.5463 23.5 20.0816C23.5 19.5856 23.361 19.115 23.1154 18.7126C23.0054 18.5347 22.8923 18.3588 22.7762 18.1848C22.311 17.4784 21.8334 16.7534 21.8334 15.931ZM17.875 21.8338H14.125C14.125 22.3311 14.3225 22.808 14.6742 23.1596C15.0258 23.5113 15.5027 23.7088 16 23.7088C16.4973 23.7088 16.9742 23.5113 17.3258 23.1596C17.6775 22.808 17.875 22.3311 17.875 21.8338Z" fill="#111111"/>
<rect x="19.626" y="8.84375" width="3.7327" height="3.48389" fill="#EF4444"/>
</svg>
