<svg width="44" height="44" viewBox="0 0 44 44" fill="none" xmlns="http://www.w3.org/2000/svg">
<path d="M32 0C38.6274 0 44 5.37258 44 12V32C44 38.6274 38.6274 44 32 44H12C5.37258 44 0 38.6274 0 32V12C0 5.37258 5.37258 0 12 0H32Z" fill="#FFEDD5"/>
<path d="M32 0C38.6274 0 44 5.37258 44 12V32C44 38.6274 38.6274 44 32 44H12C5.37258 44 0 38.6274 0 32V12C0 5.37258 5.37258 0 12 0H32Z" stroke="#E5E7EB"/>
<path d="M30 30H14V14H30V30Z" stroke="#E5E7EB"/>
<path d="M14 17.5157V27.1969C14 27.7594 14.2806 28.2907 14.75 28.4875C17.1667 29.5032 19.5833 28.8094 22 28.1157C24.2167 27.4813 26.4333 26.8438 28.6472 27.525C29.2861 27.7219 30 27.2282 30 26.4813V16.8032C30 16.2407 29.7194 15.7094 29.25 15.5125C26.8333 14.4969 24.4167 15.1907 22 15.8844C19.7833 16.5188 17.5667 17.1532 15.3528 16.4719C14.7111 16.275 14 16.7688 14 17.5157ZM22 25C20.7722 25 19.7778 23.6563 19.7778 22C19.7778 20.3438 20.7722 19 22 19C23.2278 19 24.2222 20.3438 24.2222 22C24.2222 23.6563 23.2278 25 22 25ZM15.7778 25C16.7583 25 17.5556 25.8969 17.5556 27H15.7778V25ZM17.5556 18.5C17.5556 19.6032 16.7583 20.5 15.7778 20.5V18.5H17.5556ZM28.2222 23.5V25.5H26.4444C26.4444 24.3969 27.2417 23.5 28.2222 23.5ZM26.4444 17H28.2222V19C27.2417 19 26.4444 18.1032 26.4444 17Z" fill="#EA580C"/>
</svg>
