<svg width="24" height="24" viewBox="0 0 24 24" fill="none" xmlns="http://www.w3.org/2000/svg">
<path d="M20.7549 12.0493C20.7331 12.1626 20.7571 12.2799 20.8215 12.3756C20.8859 12.4712 20.9855 12.5376 21.0986 12.5601C21.2118 12.5826 21.3292 12.5594 21.4253 12.4957C21.5214 12.4319 21.5884 12.3327 21.6117 12.2197L22.7637 6.31095C22.8088 6.09152 22.8097 5.86528 22.7661 5.64552C22.7226 5.42577 22.6355 5.21694 22.5101 5.03133C22.3846 4.84572 22.2233 4.68708 22.0356 4.56474C21.848 4.4424 21.6377 4.35883 21.4173 4.31895L15.6837 3.19095L15.5613 2.55255C15.463 2.10495 15.1914 1.71451 14.8059 1.46667C14.4204 1.21884 13.9525 1.13379 13.5045 1.23015L4.95326 2.90295C4.89853 2.91029 4.84609 2.92958 4.79964 2.95944C4.75319 2.9893 4.71387 3.02901 4.68446 3.07575L1.32926 7.91895C1.27614 7.97029 1.23652 8.03396 1.21391 8.1043C1.1913 8.17463 1.18641 8.24946 1.19966 8.32215L3.75326 21.2677C3.84786 21.7193 4.11793 22.1148 4.50408 22.3673C4.89024 22.6198 5.36086 22.7086 5.81246 22.6141L13.0389 21.2173C13.0935 21.206 13.1455 21.184 13.1916 21.1526C13.2378 21.1212 13.2774 21.081 13.308 21.0343C13.3386 20.9876 13.3598 20.9353 13.3702 20.8805C13.3807 20.8256 13.3802 20.7692 13.3689 20.7145C13.3575 20.6599 13.3355 20.608 13.3041 20.5618C13.2727 20.5156 13.2325 20.4761 13.1858 20.4454C13.1391 20.4148 13.0869 20.3936 13.032 20.3832C12.9771 20.3727 12.9207 20.3732 12.8661 20.3845L5.63966 21.7813C5.52695 21.8044 5.41079 21.8049 5.29788 21.7828C5.18497 21.7607 5.07755 21.7165 4.98183 21.6527C4.8861 21.5889 4.80397 21.5067 4.74016 21.411C4.67635 21.3153 4.63213 21.2079 4.61006 21.0949L2.13566 8.56695L4.51406 8.10135C4.96439 8.0108 5.36085 7.74632 5.61741 7.36531C5.87397 6.98429 5.96993 6.51747 5.88446 6.06615L5.41886 3.68775L13.6797 2.07015C13.7908 2.0448 13.9059 2.0419 14.0182 2.06162C14.1305 2.08133 14.2378 2.12326 14.3337 2.18496C14.4296 2.24665 14.5122 2.32686 14.5767 2.42089C14.6412 2.51492 14.6862 2.62087 14.7093 2.73255C15.3717 6.09255 16.0317 9.47415 16.6941 12.8341C15.6928 12.9811 14.7323 13.3315 13.8717 13.8637C12.9405 14.5981 12.4509 15.4573 12.7941 16.6813C13.3683 18.6731 14.3996 20.5033 15.8061 22.0261C16.0432 22.2704 16.3269 22.4645 16.6404 22.5971C16.9539 22.7297 17.2909 22.798 17.6313 22.798C17.9717 22.798 18.3086 22.7297 18.6221 22.5971C18.9356 22.4645 19.2193 22.2704 19.4565 22.0261C20.8866 20.5072 21.929 18.6654 22.4949 16.6573C22.6377 16.1352 22.6075 15.5808 22.4089 15.0772C22.2104 14.5736 21.854 14.1479 21.3933 13.8637C20.2475 13.1335 18.9117 12.7578 17.5533 12.7837L17.2845 11.3437L17.7645 11.4421C18.3285 11.5405 18.4989 10.7077 17.9349 10.6093L17.0781 10.4125L16.6869 8.30535L18.9165 8.72055C19.4781 8.81895 19.6005 7.98615 19.0629 7.86375L16.4925 7.39095L15.8565 4.10535L21.2445 5.15895C21.352 5.17646 21.4548 5.21551 21.5469 5.27375C21.6389 5.332 21.7182 5.40823 21.7801 5.49788C21.842 5.58753 21.8851 5.68876 21.9069 5.79548C21.9286 5.9022 21.9286 6.01222 21.9069 6.11895L20.7549 12.0493ZM5.56766 15.0157C5.02766 15.1141 5.19806 15.9757 5.73806 15.8485L11.3469 14.7205C11.4573 14.6979 11.5542 14.6324 11.6163 14.5383C11.6785 14.4443 11.7007 14.3294 11.6781 14.2189C11.6555 14.1085 11.5899 14.0116 11.4959 13.9495C11.4018 13.8873 11.2869 13.8651 11.1765 13.8877L5.56766 15.0157ZM14.2389 10.7989L5.07566 12.6613C4.53806 12.7597 4.70846 13.5925 5.24846 13.4941L14.3997 11.6317C14.457 11.6241 14.5122 11.6048 14.5618 11.575C14.6114 11.5453 14.6544 11.5057 14.6882 11.4587C14.722 11.4118 14.7458 11.3584 14.7582 11.3019C14.7707 11.2454 14.7714 11.187 14.7604 11.1302C14.7495 11.0734 14.727 11.0194 14.6945 10.9716C14.6619 10.9238 14.6199 10.8831 14.5711 10.8521C14.5222 10.8211 14.4676 10.8004 14.4105 10.7912C14.3533 10.7821 14.2949 10.7847 14.2389 10.7989ZM13.7589 8.42055L4.61006 10.2829C4.07246 10.3813 4.24286 11.2141 4.78286 11.1157L13.9197 9.25335C13.9743 9.24216 14.0263 9.22031 14.0725 9.18905C14.1188 9.15778 14.1584 9.11772 14.1891 9.07114C14.2199 9.02456 14.2412 8.97238 14.2518 8.91758C14.2624 8.86278 14.2621 8.80643 14.2509 8.75175C14.2397 8.69706 14.2178 8.64512 14.1866 8.59888C14.1553 8.55264 14.1152 8.51302 14.0687 8.48226C14.0221 8.45151 13.9699 8.43023 13.9151 8.41964C13.8603 8.40905 13.8039 8.40936 13.7493 8.42055H13.7589ZM16.6245 18.6925C16.7009 18.7711 16.7924 18.8335 16.8934 18.8761C16.9943 18.9187 17.1029 18.9407 17.2125 18.9407C17.3221 18.9407 17.4306 18.9187 17.5316 18.8761C17.6326 18.8335 17.724 18.7711 17.8005 18.6925L19.8477 16.5829C20.2413 16.1917 19.6293 15.5797 19.2357 15.9709L17.2269 18.0805L16.2669 17.1205C15.8757 16.7293 15.2637 17.3413 15.6549 17.7349L16.6245 18.6925ZM4.34126 7.26855L2.60126 7.58535L4.70846 4.55895L5.05166 6.23895C5.08896 6.47048 5.03467 6.70744 4.90027 6.89962C4.76587 7.09181 4.56194 7.22413 4.33166 7.26855H4.34126ZM20.9277 14.5741C21.2395 14.7589 21.481 15.0423 21.614 15.3795C21.747 15.7167 21.7639 16.0886 21.6621 16.4365C21.1351 18.3046 20.169 20.0195 18.8445 21.4381C18.5182 21.7513 18.0835 21.9262 17.6313 21.9262C17.179 21.9262 16.7443 21.7513 16.4181 21.4381C15.1022 20.0173 14.1452 18.3024 13.6269 16.4365C13.5188 16.094 13.5312 15.7247 13.6622 15.3902C13.7933 15.0557 14.0349 14.7762 14.3469 14.5981C15.3303 13.9702 16.4718 13.6346 17.6386 13.6304C18.8053 13.6261 19.9493 13.9534 20.9373 14.5741H20.9277Z" fill="black"/>
</svg>
