<svg width="44" height="44" viewBox="0 0 44 44" fill="none" xmlns="http://www.w3.org/2000/svg">
<path d="M0 12C0 5.37258 5.37258 0 12 0H32C38.6274 0 44 5.37258 44 12V32C44 38.6274 38.6274 44 32 44H12C5.37258 44 0 38.6274 0 32V12Z" fill="#FFF1B7"/>
<path d="M23.0828 14.2998C18.8375 14.2998 15.4 17.7476 15.4 21.9998C15.4 26.252 18.8375 29.6998 23.0828 29.6998C25.1659 29.6998 27.0531 28.8679 28.4384 27.5204C28.6103 27.352 28.655 27.0907 28.545 26.8776C28.435 26.6645 28.1978 26.5442 27.9606 26.5854C27.6237 26.6439 27.28 26.6748 26.9259 26.6748C23.595 26.6748 20.8931 23.9661 20.8931 20.6248C20.8931 18.3629 22.1306 16.3932 23.9628 15.3551C24.1725 15.2348 24.2791 14.9942 24.2275 14.7604C24.1759 14.5267 23.9766 14.3514 23.7359 14.3307C23.5194 14.3136 23.3028 14.3032 23.0828 14.3032V14.2998Z" fill="#FFC500"/>
</svg>
