<svg width="40" height="38" viewBox="0 0 40 38" fill="none" xmlns="http://www.w3.org/2000/svg">
<path d="M0 8C0 3.58172 3.58172 0 8 0H32C36.4183 0 40 3.58172 40 8V30C40 34.4183 36.4183 38 32 38H8C3.58172 38 0 34.4183 0 30V8Z" fill="#F0FDF4"/>
<g clip-path="url(#clip0_95_89)">
<path d="M19.9998 10C20.6221 10 21.1248 10.5027 21.1248 11.125V12.3801C21.1811 12.3871 21.2338 12.3941 21.29 12.4047C21.3041 12.4082 21.3147 12.4082 21.3287 12.4117L23.0162 12.7211C23.6279 12.8336 24.0322 13.4207 23.9197 14.0289C23.8072 14.6371 23.2201 15.0449 22.6119 14.9324L20.942 14.6266C19.8416 14.4648 18.8713 14.5738 18.1893 14.8445C17.5072 15.1152 17.233 15.4879 17.1697 15.8324C17.0994 16.2086 17.1522 16.4195 17.2119 16.5496C17.2752 16.6867 17.4053 16.8414 17.6619 17.0137C18.235 17.3898 19.1139 17.6359 20.2529 17.9383L20.3549 17.9664C21.3604 18.2336 22.5908 18.557 23.5049 19.1547C24.0041 19.4816 24.4752 19.9246 24.767 20.5434C25.0658 21.1727 25.1291 21.8758 24.992 22.6246C24.7494 23.9605 23.8283 24.8535 22.6857 25.3211C22.2041 25.518 21.6803 25.6445 21.1248 25.7078V26.875C21.1248 27.4973 20.6221 28 19.9998 28C19.3775 28 18.8748 27.4973 18.8748 26.875V25.648C18.8607 25.6445 18.8432 25.6445 18.8291 25.641H18.8221C17.9643 25.5074 16.5545 25.1383 15.6053 24.7164C15.0393 24.4633 14.7826 23.7988 15.0357 23.2328C15.2889 22.6668 15.9533 22.4102 16.5193 22.6633C17.2541 22.9902 18.4635 23.3137 19.1631 23.4227C20.2846 23.5879 21.2092 23.493 21.835 23.2363C22.4291 22.9937 22.6998 22.6422 22.7772 22.2203C22.8439 21.8477 22.7912 21.6332 22.7314 21.5031C22.6647 21.3625 22.5346 21.2078 22.2744 21.0355C21.6979 20.6594 20.8154 20.4133 19.6729 20.1109L19.5744 20.0863C18.5725 19.8191 17.342 19.4922 16.4279 18.8945C15.9287 18.5676 15.4611 18.1211 15.1693 17.5023C14.874 16.873 14.8143 16.1699 14.9549 15.4211C15.208 14.0781 16.2135 13.2063 17.3561 12.7527C17.8236 12.5664 18.3369 12.4398 18.8748 12.366V11.125C18.8748 10.5027 19.3775 10 19.9998 10Z" fill="#16A34A"/>
</g>
<defs>
<clipPath id="clip0_95_89">
<rect width="11.25" height="18" fill="white" transform="translate(14.375 10)"/>
</clipPath>
</defs>
</svg>
