<svg width="32" height="32" viewBox="0 0 32 32" fill="none" xmlns="http://www.w3.org/2000/svg">
<path d="M16 0C24.8366 0 32 7.16344 32 16C32 24.8366 24.8366 32 16 32C7.16344 32 0 24.8366 0 16C0 7.16344 7.16344 0 16 0Z" fill="#DCFCE7"/>
<path d="M16 0C24.8366 0 32 7.16344 32 16C32 24.8366 24.8366 32 16 32C7.16344 32 0 24.8366 0 16C0 7.16344 7.16344 0 16 0Z" stroke="#E5E7EB"/>
<g clip-path="url(#clip0_95_136)">
<path d="M21.2795 12.4702C21.5725 12.7632 21.5725 13.239 21.2795 13.5319L15.2795 19.5319C14.9865 19.8249 14.5107 19.8249 14.2178 19.5319L11.2178 16.5319C10.9248 16.239 10.9248 15.7632 11.2178 15.4702C11.5107 15.1772 11.9865 15.1772 12.2795 15.4702L14.7498 17.9382L20.2201 12.4702C20.5131 12.1772 20.9889 12.1772 21.2818 12.4702H21.2795Z" fill="#16A34A"/>
</g>
<defs>
<clipPath id="clip0_95_136">
<rect width="10.5" height="12" fill="white" transform="translate(11 10)"/>
</clipPath>
</defs>
</svg>
