<svg width="24" height="24" viewBox="0 0 24 24" fill="none" xmlns="http://www.w3.org/2000/svg">
<path fill-rule="evenodd" clip-rule="evenodd" d="M22.511 13.8639C20.2956 13.8639 19.184 16.5479 20.7505 18.1143C20.8191 18.183 20.8736 18.2644 20.9107 18.3541C20.9479 18.4438 20.967 18.5399 20.967 18.637C20.967 18.7341 20.9479 18.8302 20.9107 18.9198C20.8736 19.0095 20.8191 19.091 20.7505 19.1596L19.1595 20.7507C19.0209 20.8893 18.8329 20.9671 18.6368 20.9671C18.4408 20.9671 18.2528 20.8893 18.1142 20.7507C16.5478 19.1842 13.8638 20.2957 13.8638 22.5112C13.8638 22.7071 13.7859 22.895 13.6474 23.0336C13.5088 23.1721 13.3209 23.25 13.125 23.25H10.875C10.778 23.25 10.6819 23.2309 10.5922 23.1938C10.5025 23.1566 10.4211 23.1022 10.3524 23.0336C10.2838 22.9649 10.2294 22.8835 10.1923 22.7938C10.1551 22.7042 10.136 22.6081 10.136 22.511C10.136 20.2928 7.45406 19.182 5.88562 20.7505C5.747 20.8891 5.559 20.967 5.36297 20.967C5.16694 20.967 4.97893 20.8891 4.84031 20.7505L3.24952 19.1595C3.1109 19.0208 3.03303 18.8328 3.03303 18.6368C3.03303 18.4408 3.1109 18.2528 3.24952 18.1141C4.81598 16.5477 3.70444 13.8638 1.48898 13.8638C1.29303 13.8638 1.1051 13.7859 0.966513 13.6474C0.82793 13.5089 0.75005 13.321 0.75 13.125V10.875C0.749994 10.778 0.769104 10.6819 0.806239 10.5922C0.843375 10.5025 0.897808 10.4211 0.96643 10.3524C1.03505 10.2838 1.11652 10.2294 1.20618 10.1923C1.29584 10.1551 1.39194 10.136 1.48898 10.136C3.70444 10.136 4.81598 7.45205 3.24952 5.88562C3.1109 5.747 3.03303 5.559 3.03303 5.36297C3.03303 5.16694 3.1109 4.97893 3.24952 4.84031L4.84055 3.24928C4.90918 3.18064 4.99066 3.12618 5.08034 3.08903C5.17002 3.05188 5.26613 3.03276 5.3632 3.03276C5.46027 3.03276 5.55639 3.05188 5.64607 3.08903C5.73575 3.12618 5.81723 3.18064 5.88586 3.24928C7.45228 4.81575 10.1363 3.7042 10.1363 1.48875C10.1363 1.29284 10.2141 1.10496 10.3527 0.96643C10.4912 0.827898 10.6791 0.75005 10.875 0.75H13.125C13.222 0.749994 13.3181 0.769104 13.4078 0.806239C13.4975 0.843375 13.5789 0.897808 13.6476 0.96643C13.7162 1.03505 13.7706 1.11652 13.8077 1.20618C13.8449 1.29584 13.864 1.39194 13.864 1.48898C13.864 3.70444 16.548 4.81598 18.1144 3.24952C18.183 3.18088 18.2645 3.12643 18.3542 3.08928C18.4438 3.05213 18.54 3.03302 18.637 3.03302C18.7341 3.03302 18.8302 3.05213 18.9199 3.08928C19.0096 3.12643 19.0911 3.18088 19.1597 3.24952L20.7507 4.84055C20.8193 4.90918 20.8738 4.99066 20.9109 5.08034C20.9481 5.17002 20.9672 5.26613 20.9672 5.3632C20.9672 5.46027 20.9481 5.55639 20.9109 5.64607C20.8738 5.73575 20.8193 5.81723 20.7507 5.88586C19.1842 7.45228 20.2957 10.1363 22.5112 10.1363C22.7071 10.1363 22.895 10.2141 23.0336 10.3527C23.1721 10.4912 23.25 10.6791 23.25 10.875V13.125C23.25 13.222 23.2309 13.3181 23.1938 13.4078C23.1566 13.4975 23.1022 13.5789 23.0336 13.6476C22.9649 13.7162 22.8835 13.7706 22.7938 13.8077C22.7042 13.8449 22.6081 13.864 22.511 13.864V13.8639ZM18.889 11.9979C18.8886 10.6355 18.4842 9.30376 17.727 8.17115C16.9697 7.03854 15.8937 6.15589 14.6348 5.6348C13.376 5.11372 11.9909 4.97759 10.6547 5.24364C9.31854 5.50969 8.09124 6.16597 7.12801 7.1295C6.16478 8.09302 5.50887 9.32053 5.24323 10.6568C4.97759 11.9931 5.11414 13.3781 5.63561 14.6368C6.15708 15.8955 7.04006 16.9712 8.1729 17.7281C9.30575 18.485 10.6376 18.889 12 18.889C12.9049 18.889 13.8008 18.7107 14.6368 18.3644C15.4727 18.018 16.2323 17.5104 16.872 16.8705C17.5117 16.2306 18.0191 15.4709 18.3652 14.6348C18.7113 13.7988 18.8893 12.9027 18.889 11.9979ZM9.66947 9.9C9.66941 10.361 9.80606 10.8116 10.0621 11.1949C10.3182 11.5783 10.6822 11.877 11.1081 12.0535C11.5339 12.2299 12.0026 12.2761 12.4547 12.1862C12.9068 12.0963 13.3222 11.8743 13.6481 11.5484C13.9741 11.2224 14.1961 10.8071 14.286 10.355C14.376 9.90287 14.3298 9.43423 14.1534 9.00834C13.977 8.58245 13.6782 8.21844 13.2949 7.96235C12.9116 7.70626 12.461 7.56958 12 7.56961C11.3819 7.56962 10.7892 7.81514 10.3521 8.25217C9.91508 8.6892 9.66952 9.28193 9.66947 9.9ZM12 13.5737C11.0709 13.5735 10.1598 13.83 9.36723 14.3149C8.57467 14.7998 7.9315 15.4942 7.50867 16.3215C8.09018 16.9259 8.78767 17.4067 9.55939 17.7351C10.3311 18.0635 11.1612 18.2328 11.9999 18.2328C12.8385 18.2328 13.6686 18.0635 14.4403 17.7351C15.212 17.4067 15.9095 16.9259 16.491 16.3215C16.0683 15.4942 15.4252 14.7998 14.6327 14.3149C13.8402 13.83 12.9291 13.5735 12 13.5737Z" fill="black"/>
</svg>
