<svg width="32" height="32" viewBox="0 0 32 32" fill="none" xmlns="http://www.w3.org/2000/svg">
<path d="M16 0C24.8366 0 32 7.16344 32 16C32 24.8366 24.8366 32 16 32C7.16344 32 0 24.8366 0 16C0 7.16344 7.16344 0 16 0Z" fill="#FEF9C3"/>
<path d="M16 0C24.8366 0 32 7.16344 32 16C32 24.8366 24.8366 32 16 32C7.16344 32 0 24.8366 0 16C0 7.16344 7.16344 0 16 0Z" stroke="#E5E7EB"/>
<g clip-path="url(#clip0_95_154)">
<path d="M16.4274 10.4219C16.3032 10.1641 16.0407 10 15.7524 10C15.4641 10 15.204 10.1641 15.0774 10.4219L13.5704 13.5227L10.2047 14.0195C9.92349 14.0617 9.68912 14.2586 9.6024 14.5281C9.51568 14.7977 9.58599 15.0953 9.78755 15.2945L12.2297 17.7109L11.6532 21.1258C11.6063 21.407 11.7235 21.693 11.9555 21.8594C12.1876 22.0258 12.4946 22.0469 12.7477 21.9133L15.7547 20.3078L18.7618 21.9133C19.0149 22.0469 19.3219 22.0281 19.554 21.8594C19.786 21.6906 19.9032 21.407 19.8563 21.1258L19.2774 17.7109L21.7196 15.2945C21.9211 15.0953 21.9938 14.7977 21.9047 14.5281C21.8157 14.2586 21.5836 14.0617 21.3024 14.0195L17.9344 13.5227L16.4274 10.4219Z" fill="#FFD700"/>
</g>
<defs>
<clipPath id="clip0_95_154">
<path d="M9 10H22.5V22H9V10Z" fill="white"/>
</clipPath>
</defs>
</svg>
