<svg width="40" height="38" viewBox="0 0 40 38" fill="none" xmlns="http://www.w3.org/2000/svg">
<path d="M0 8C0 3.58172 3.58172 0 8 0H32C36.4183 0 40 3.58172 40 8V30C40 34.4183 36.4183 38 32 38H8C3.58172 38 0 34.4183 0 30V8Z" fill="#FEFCE8"/>
<g clip-path="url(#clip0_95_106)">
<path d="M21.1409 10.6328C20.9545 10.2461 20.5608 10 20.1284 10C19.6959 10 19.3057 10.2461 19.1159 10.6328L16.8553 15.284L11.8069 16.0293C11.385 16.0926 11.0334 16.3879 10.9034 16.7922C10.7733 17.1965 10.8787 17.643 11.1811 17.9418L14.8444 21.5664L13.9795 26.6887C13.9092 27.1105 14.085 27.5395 14.433 27.7891C14.7811 28.0387 15.2416 28.0703 15.6213 27.8699L20.1319 25.4617L24.6424 27.8699C25.0221 28.0703 25.4826 28.0422 25.8307 27.7891C26.1787 27.5359 26.3545 27.1105 26.2842 26.6887L25.4159 21.5664L29.0791 17.9418C29.3815 17.643 29.4905 17.1965 29.3569 16.7922C29.2233 16.3879 28.8752 16.0926 28.4534 16.0293L23.4014 15.284L21.1409 10.6328Z" fill="#FFD700"/>
</g>
<defs>
<clipPath id="clip0_95_106">
<path d="M10 10H30.25V28H10V10Z" fill="white"/>
</clipPath>
</defs>
</svg>
