<svg width="24" height="24" viewBox="0 0 24 24" fill="none" xmlns="http://www.w3.org/2000/svg">
<path d="M4.5 20.9997C4.5 21.1986 4.57902 21.3894 4.71967 21.53C4.86032 21.6707 5.05109 21.7497 5.25 21.7497H18.75C18.9489 21.7497 19.1397 21.6707 19.2803 21.53C19.421 21.3894 19.5 21.1986 19.5 20.9997V18.7497H4.5V20.9997ZM21.4553 6.15346C21.3436 6.06856 21.2104 6.01655 21.0707 6.0033C20.931 5.99005 20.7904 6.01608 20.6648 6.07846L15.3938 8.71396L12.6968 1.97146C12.6412 1.83204 12.5451 1.71249 12.4209 1.62827C12.2967 1.54405 12.1501 1.49902 12 1.49902C11.8499 1.49902 11.7033 1.54405 11.5791 1.62827C11.4549 1.71249 11.3588 1.83204 11.3033 1.97146L8.60625 8.71396L3.33525 6.07846C3.20966 6.01581 3.06901 5.98965 2.9293 6.00296C2.78958 6.01627 2.6564 6.06852 2.5449 6.15376C2.4334 6.23901 2.34806 6.35383 2.29858 6.48516C2.2491 6.6165 2.23747 6.75909 2.265 6.89671L4.335 17.2497H19.665L21.735 6.89671C21.7625 6.75917 21.7508 6.61669 21.7014 6.48544C21.6519 6.35419 21.5666 6.23944 21.4553 6.15421V6.15346ZM12 14.2497C11.5547 14.1947 11.1486 13.9679 10.8684 13.6175C10.5881 13.2672 10.4559 12.8212 10.5 12.3747C10.4559 11.9282 10.5881 11.4822 10.8684 11.1319C11.1486 10.7816 11.5547 10.5547 12 10.4997C12.4453 10.5547 12.8514 10.7816 13.1316 11.1319C13.4119 11.4822 13.5441 11.9282 13.5 12.3747C13.5441 12.8212 13.4119 13.2672 13.1316 13.6175C12.8514 13.9679 12.4453 14.1947 12 14.2497Z" fill="black"/>
</svg>
