<svg width="32" height="32" viewBox="0 0 32 32" fill="none" xmlns="http://www.w3.org/2000/svg">
<path d="M24 0C28.4183 0 32 3.58172 32 8V24C32 28.4183 28.4183 32 24 32H8C3.58172 32 0 28.4183 0 24V8C0 3.58172 3.58172 0 8 0H24Z" fill="#E5E7EB"/>
<path d="M24 0C28.4183 0 32 3.58172 32 8V24C32 28.4183 28.4183 32 24 32H8C3.58172 32 0 28.4183 0 24V8C0 3.58172 3.58172 0 8 0H24Z" stroke="#E5E7EB"/>
<g clip-path="url(#clip0_794_2816)">
<path d="M8 12.5C8 11.5348 8.78477 10.75 9.75 10.75H16.75C17.7152 10.75 18.5 11.5348 18.5 12.5V19.5C18.5 20.4652 17.7152 21.25 16.75 21.25H9.75C8.78477 21.25 8 20.4652 8 19.5V12.5ZM23.2879 11.7289C23.5723 11.882 23.75 12.1773 23.75 12.5V19.5C23.75 19.8227 23.5723 20.118 23.2879 20.2711C23.0035 20.4242 22.659 20.4078 22.3883 20.2273L19.7633 18.4773L19.375 18.2176V17.75V14.25V13.7824L19.7633 13.5227L22.3883 11.7727C22.6562 11.5949 23.0008 11.5758 23.2879 11.7289Z" fill="#4B5563"/>
</g>
<defs>
<clipPath id="clip0_794_2816">
<rect width="15.75" height="14" fill="white" transform="translate(8 9)"/>
</clipPath>
</defs>
</svg>
